<?xml version="1.0" encoding="UTF-8"?>
<svg xmlns="http://www.w3.org/2000/svg" xmlns:xlink="http://www.w3.org/1999/xlink"
	viewBox="0 0 472.09 112.9" aria-label="Logo de BI Consulting SRL" role="img">
	<defs>
		<style>.e{fill:#fff;}.f{clip-path:url(#d);}.g{fill:none;}</style>
		<clipPath id="d">
			<rect class="g" width="80.12" height="112.9" />
		</clipPath>
	</defs>
	<g id="a" />
	<g id="b">
		<g id="c">
			<g class="f">
				<g>
					<path class="e"
						d="M63.89,75.7l2.88,3.34s-22.15,15.42-39.67,22.51c-12.73,5.15-23.7,5.17-23.9-.27-.16-4.31,1.44-6.47,2.12-7.19-7.25,6.61-6.84,15.78-.19,17.88,6.86,2.17,18.19,.96,37.26-8.63,19.07-9.59,29.74-18.43,29.74-18.43l2.69,3.26,5.31-14.71-16.23,2.23h0Z" />
					<path class="e"
						d="M7.33,41.29l1.72-1.23v45.09h.87V39.43l2.18-1.57v21.1h.87v-21.73l2.47-1.77V103.33c.29-.05,.58-.1,.87-.16V34.83l1.72-1.24V102.81c2.84-.65,5.92-1.62,9.11-2.92,4.03-1.63,8.3-3.7,12.5-5.92V39.46l-10.74-3.66h-.1l-10.78-3.71-1.72,1.23-.87,.62-2.47,1.76-.87,.62-2.18,1.56-.87,.63-3.17,2.26v62.15c.28,.17,.58,.33,.89,.48,.18,.04,.37,.09,.56,.12V41.29h0Z" />
					<path class="e"
						d="M61,16.36l-13.48-8.35v-3.15l22.26,10.25L47.67,0l-12.45,6.47V15.1l12.3-4.67,13.48,5.93Z" />
					<path class="e"
						d="M61,28.31l-13.48-8.35v-3.15l22.26,10.25-22.12-15.1-12.45,6.47v8.63l12.3-4.67,13.48,5.93Z" />
					<path class="e"
						d="M69.79,39l-22.12-15.1-12.45,6.47v4.9l5.17,1.76,7.14-2.71,13.48,5.93-13.48-8.35v-3.15l22.27,10.24Z" />
					<path class="e"
						d="M69.79,50.96l-22.12-15.1-5.47,2.84v9.6l5.32-2.02,13.48,5.93-13.48-8.35v-3.15l22.27,10.24Z" />
					<path class="e"
						d="M69.79,62.91l-22.12-15.1-5.47,2.84v9.6l5.32-2.02,13.48,5.93-13.48-8.35v-3.15l22.27,10.25Z" />
					<path class="e"
						d="M47.67,59.76l-5.47,2.84v9.6l5.32-2.02,13.48,5.93-13.48-8.35v-3.15l19.02,8.75,.88-.12-19.76-13.49Z" />
					<path class="e"
						d="M47.52,79.72v-3.15l12.21,5.58c.58-.37,1.13-.73,1.65-1.07-4.57-3.12-9.14-6.24-13.71-9.37l-5.47,2.84v9.6l5.32-2.02,7.19,3.16c.31-.19,.61-.38,.91-.56l-8.1-5.02h0Z" />
					<path class="e"
						d="M47.53,88.34c.4,.19,.81,.37,1.21,.56,1.25-.73,2.48-1.46,3.65-2.18l-4.72-3.24-5.47,2.84v6.28c1.81-.99,3.59-2,5.32-3v-1.27h0Z" />
				</g>
			</g>
			<path class="e"
				d="M126.35,51.03c1.17,.82,2.1,1.86,2.8,3.15,.7,1.28,1.05,2.68,1.05,4.2v.09c0,1.22-.23,2.39-.7,3.5-.47,1.08-1.11,2.02-1.92,2.84-.82,.79-1.76,1.41-2.84,1.88-1.08,.47-2.23,.7-3.45,.7h-8.7l2.1-5.24h6.6c1.02,0,1.88-.35,2.58-1.05,.73-.73,1.09-1.6,1.09-2.62v-.09c0-1.02-.36-1.88-1.09-2.58-.7-.73-1.56-1.09-2.58-1.09h-10.71v12.67h-5.24v-30.59h13.81c1.22,0,2.37,.23,3.45,.7,1.11,.47,2.05,1.11,2.84,1.92,.82,.82,1.46,1.76,1.92,2.84,.47,1.08,.7,2.23,.7,3.45v.09c0,.99-.16,1.94-.48,2.84-.29,.87-.7,1.68-1.22,2.4Zm-3.54-5.33c0-1.02-.36-1.88-1.09-2.58-.7-.73-1.56-1.09-2.58-1.09h-8.57v7.43h8.57c1.02,0,1.88-.35,2.58-1.05,.73-.73,1.09-1.6,1.09-2.62v-.09Zm15.68-8.87v30.55h-5.24v-30.55h5.24Zm38.56,26.44c-1.46,1.46-3.15,2.61-5.07,3.45-1.92,.82-3.99,1.22-6.21,1.22s-4.25-.41-6.21-1.22c-1.92-.84-3.61-1.98-5.07-3.41-1.43-1.46-2.56-3.15-3.41-5.07-.82-1.95-1.22-4.02-1.22-6.21s.41-4.24,1.22-6.16c.84-1.95,1.98-3.64,3.41-5.07,1.46-1.46,3.15-2.59,5.07-3.41,1.95-.84,4.02-1.27,6.21-1.27s4.28,.42,6.21,1.27c1.92,.82,3.61,1.95,5.07,3.41l-3.71,3.71c-1.02-1.02-2.17-1.79-3.45-2.32-1.28-.55-2.65-.83-4.11-.83s-2.78,.28-4.06,.83c-1.28,.52-2.43,1.3-3.45,2.32-1.02,1.02-1.81,2.17-2.36,3.45-.52,1.28-.79,2.64-.79,4.06s.26,2.8,.79,4.11c.55,1.28,1.34,2.43,2.36,3.45,1.02,1.02,2.17,1.79,3.45,2.32,1.28,.52,2.64,.79,4.06,.79s2.83-.26,4.11-.79c1.28-.52,2.43-1.3,3.45-2.32l3.71,3.67Zm15.45-21.9c-1.43,0-2.78,.28-4.06,.83-1.28,.52-2.43,1.3-3.45,2.32s-1.81,2.17-2.36,3.45c-.52,1.28-.79,2.64-.79,4.06s.26,2.8,.79,4.11c.55,1.28,1.34,2.43,2.36,3.45,1.02,1.02,2.17,1.79,3.45,2.32,1.28,.52,2.64,.79,4.06,.79s2.78-.26,4.06-.79c1.31-.52,2.48-1.3,3.5-2.32,1.02-1.02,1.79-2.17,2.32-3.45,.52-1.31,.79-2.68,.79-4.11s-.26-2.78-.79-4.06c-.52-1.28-1.3-2.43-2.32-3.45s-2.19-1.79-3.5-2.32c-1.28-.55-2.64-.83-4.06-.83Zm0-5.24c2.19,0,4.24,.42,6.16,1.27,1.95,.82,3.64,1.95,5.07,3.41,1.46,1.43,2.59,3.12,3.41,5.07,.84,1.92,1.27,3.98,1.27,6.16s-.42,4.25-1.27,6.21c-.82,1.92-1.95,3.61-3.41,5.07s-3.12,2.56-5.07,3.41c-1.92,.82-3.98,1.22-6.16,1.22s-4.25-.41-6.21-1.22c-1.92-.84-3.61-1.98-5.07-3.41-1.43-1.46-2.56-3.15-3.41-5.07-.82-1.95-1.22-4.02-1.22-6.21s.41-4.24,1.22-6.16c.84-1.95,1.98-3.64,3.41-5.07,1.46-1.46,3.15-2.59,5.07-3.41,1.95-.84,4.02-1.27,6.21-1.27Zm36.51,.61h5.24v30.59h-5.68l-12.28-20.93v20.93h-5.24v-30.59h5.68l12.28,20.93v-20.93Zm29.83,21.9c0,1.43-.23,2.72-.7,3.89-.47,1.14-1.14,2.11-2.01,2.93-.84,.79-1.88,1.4-3.1,1.84-1.22,.44-2.59,.66-4.11,.66-2.42,0-4.57-.38-6.47-1.14-1.89-.79-3.45-1.68-4.68-2.67l3.63-3.63c.96,.87,2.04,1.54,3.23,2.01,.73,.29,1.41,.48,2.05,.57,.64,.09,1.17,.13,1.57,.13,.76,0,1.44-.09,2.05-.26,.64-.2,1.19-.47,1.66-.79,.99-.73,1.49-1.69,1.49-2.88,0-.73-.26-1.38-.79-1.97-.41-.47-.93-.84-1.57-1.14-.52-.29-1.08-.52-1.66-.7-.58-.17-1.11-.34-1.57-.48-.15-.06-.28-.09-.39-.09-.12-.03-.22-.07-.31-.13-.06,0-.15-.03-.26-.09-.61-.17-1.5-.48-2.67-.92-1.14-.44-2.27-1.03-3.41-1.79-2.65-1.78-3.98-3.96-3.98-6.56,0-1.72,.29-3.16,.87-4.33,.61-1.19,1.4-2.16,2.36-2.88,.96-.76,2.02-1.3,3.19-1.62,1.19-.32,2.36-.48,3.5-.48,2.1,0,3.86,.25,5.29,.74,1.43,.5,2.56,.99,3.41,1.49,.44,.26,.8,.52,1.09,.79,.32,.23,.6,.45,.83,.66l-3.71,3.76c-.79-.79-1.59-1.38-2.4-1.79-1.22-.58-2.51-.87-3.85-.87-.58,0-1.17,.07-1.75,.22-.58,.15-1.09,.34-1.53,.57-1.28,.79-1.92,1.82-1.92,3.1,0,.79,.26,1.46,.79,2.01,.38,.44,.9,.83,1.57,1.18,.55,.29,1.14,.52,1.75,.7,.61,.17,1.18,.34,1.7,.48l.52,.13c.15,.06,.42,.15,.83,.26,.41,.12,.89,.29,1.44,.52,.55,.23,1.15,.51,1.79,.83,.67,.32,1.33,.7,1.97,1.14,2.83,1.86,4.24,4.06,4.24,6.6Zm28.09-21.85v18.36c0,1.78-.34,3.45-1.01,5.03-.67,1.54-1.59,2.9-2.75,4.06s-2.53,2.08-4.11,2.75c-1.54,.67-3.2,1.01-4.98,1.01s-3.45-.34-5.03-1.01c-1.54-.67-2.9-1.59-4.06-2.75s-2.08-2.52-2.75-4.06c-.67-1.57-1.01-3.25-1.01-5.03v-18.36h5.24v18.36c0,1.02,.19,2,.57,2.93,.38,.9,.93,1.72,1.66,2.45,.73,.73,1.54,1.28,2.45,1.66,.93,.38,1.91,.57,2.93,.57,2.1,0,3.89-.74,5.38-2.23,.73-.73,1.28-1.54,1.66-2.45,.38-.93,.57-1.91,.57-2.93v-18.36h5.24Zm8.11,25.35h12.02v5.24h-17.26v-30.55h5.24v25.3Zm30.2-25.35v5.24h-8.96v25.35h-5.24v-25.35h-9v-5.24h23.21Zm7.88,.04v30.55h-5.24v-30.55h5.24Zm21.25-.09h5.24v30.59h-5.68l-12.28-20.93v20.93h-5.24v-30.59h5.68l12.28,20.93v-20.93Zm39.45,12.67c.06,.44,.1,.87,.13,1.31,.06,.44,.09,.87,.09,1.31,0,2.19-.42,4.25-1.27,6.21-.82,1.92-1.95,3.61-3.41,5.07-1.43,1.43-3.12,2.56-5.07,3.41-1.92,.82-3.98,1.22-6.16,1.22s-4.25-.41-6.21-1.22c-1.92-.84-3.61-1.98-5.07-3.41-1.43-1.46-2.56-3.15-3.41-5.07-.82-1.95-1.22-4.02-1.22-6.21s.41-4.24,1.22-6.16c.84-1.95,1.98-3.64,3.41-5.07,1.46-1.46,3.15-2.59,5.07-3.41,1.95-.84,4.02-1.27,6.21-1.27s4.28,.42,6.21,1.27c1.92,.82,3.6,1.95,5.03,3.41l-3.67,3.71c-1.02-1.02-2.19-1.79-3.5-2.32-1.28-.55-2.64-.83-4.06-.83s-2.78,.28-4.06,.83c-1.28,.52-2.43,1.3-3.45,2.32s-1.81,2.17-2.36,3.45c-.52,1.28-.79,2.64-.79,4.06s.26,2.8,.79,4.11c.55,1.28,1.34,2.43,2.36,3.45,1.02,1.02,2.17,1.79,3.45,2.32,1.28,.52,2.64,.79,4.06,.79s2.78-.26,4.06-.79c1.31-.52,2.48-1.3,3.5-2.32,1.37-1.43,2.3-3.07,2.8-4.94h-14.16l1.31-5.24h18.18Zm33.15,9.22c0,1.43-.23,2.72-.7,3.89-.47,1.14-1.14,2.11-2.01,2.93-.84,.79-1.88,1.4-3.1,1.84-1.22,.44-2.59,.66-4.11,.66-2.42,0-4.57-.38-6.47-1.14-1.89-.79-3.45-1.68-4.68-2.67l3.63-3.63c.96,.87,2.04,1.54,3.23,2.01,.73,.29,1.41,.48,2.05,.57s1.17,.13,1.57,.13c.76,0,1.44-.09,2.05-.26,.64-.2,1.19-.47,1.66-.79,.99-.73,1.49-1.69,1.49-2.88,0-.73-.26-1.38-.79-1.97-.41-.47-.93-.84-1.57-1.14-.52-.29-1.08-.52-1.66-.7-.58-.17-1.11-.34-1.57-.48-.15-.06-.28-.09-.39-.09-.12-.03-.22-.07-.31-.13-.06,0-.15-.03-.26-.09-.61-.17-1.5-.48-2.67-.92-1.14-.44-2.27-1.03-3.41-1.79-2.65-1.78-3.98-3.96-3.98-6.56,0-1.72,.29-3.16,.87-4.33,.61-1.19,1.4-2.16,2.36-2.88,.96-.76,2.02-1.3,3.19-1.62,1.19-.32,2.36-.48,3.5-.48,2.1,0,3.86,.25,5.29,.74,1.43,.5,2.56,.99,3.41,1.49,.44,.26,.8,.52,1.09,.79,.32,.23,.6,.45,.83,.66l-3.71,3.76c-.79-.79-1.59-1.38-2.4-1.79-1.22-.58-2.51-.87-3.85-.87-.58,0-1.17,.07-1.75,.22-.58,.15-1.09,.34-1.53,.57-1.28,.79-1.92,1.82-1.92,3.1,0,.79,.26,1.46,.79,2.01,.38,.44,.9,.83,1.57,1.18,.55,.29,1.14,.52,1.75,.7,.61,.17,1.18,.34,1.7,.48l.52,.13c.15,.06,.42,.15,.83,.26,.41,.12,.89,.29,1.44,.52s1.15,.51,1.79,.83c.67,.32,1.33,.7,1.97,1.14,2.83,1.86,4.24,4.06,4.24,6.6Zm25.03-10.88c0,1.11-.16,2.17-.48,3.19-.29,.99-.71,1.91-1.27,2.75-.52,.84-1.18,1.62-1.97,2.32-.76,.67-1.6,1.22-2.53,1.66l6.25,9.7h-6.25l-5.55-8.61h-3.58l2.14-5.24h2.27c1.57,0,2.93-.57,4.06-1.7,.52-.55,.93-1.18,1.22-1.88,.29-.7,.44-1.43,.44-2.19s-.15-1.49-.44-2.19c-.29-.7-.7-1.31-1.22-1.84-1.14-1.14-2.49-1.7-4.06-1.7h-6.21v25.35h-5.24v-30.59h11.45c1.52,0,2.93,.29,4.24,.87,1.34,.58,2.51,1.37,3.5,2.36s1.78,2.16,2.36,3.5c.58,1.31,.87,2.72,.87,4.24Zm8.09,14.38h12.02v5.24h-17.26v-30.55h5.24v25.3Z" />
			<path class="e"
				d="M111.06,93.01c-1.23,0-2.41-.2-3.55-.59-1.12-.41-1.99-.93-2.6-1.56l.69-1.35c.58,.57,1.37,1.05,2.34,1.44,.99,.38,2.04,.57,3.12,.57s1.89-.13,2.53-.38c.66-.27,1.14-.62,1.44-1.07,.32-.44,.47-.93,.47-1.47,0-.65-.19-1.17-.57-1.56-.36-.39-.84-.7-1.44-.92-.6-.24-1.26-.44-1.99-.62-.73-.17-1.45-.36-2.18-.54-.73-.21-1.4-.47-2.01-.8-.6-.33-1.09-.77-1.47-1.3-.36-.55-.54-1.27-.54-2.15,0-.82,.21-1.57,.64-2.25,.44-.69,1.11-1.25,2.01-1.66,.9-.43,2.05-.64,3.46-.64,.93,0,1.85,.13,2.77,.4,.92,.25,1.7,.61,2.37,1.07l-.59,1.4c-.71-.47-1.47-.82-2.27-1.04-.79-.22-1.55-.33-2.3-.33-.99,0-1.81,.13-2.46,.4s-1.13,.63-1.44,1.09c-.3,.44-.45,.95-.45,1.52,0,.65,.18,1.17,.54,1.56,.38,.39,.87,.7,1.47,.92,.62,.22,1.29,.42,2.01,.59,.73,.17,1.44,.36,2.15,.57,.73,.21,1.39,.47,1.99,.8,.62,.32,1.1,.74,1.47,1.28,.38,.54,.57,1.24,.57,2.11,0,.8-.22,1.55-.66,2.25-.44,.68-1.12,1.23-2.04,1.66-.9,.41-2.06,.62-3.48,.62Zm17.95,0c-1.25,0-2.41-.21-3.48-.62-1.06-.43-1.98-1.02-2.77-1.78-.77-.77-1.38-1.66-1.82-2.68-.43-1.03-.64-2.15-.64-3.36s.21-2.33,.64-3.34c.44-1.03,1.05-1.92,1.82-2.68,.79-.77,1.71-1.37,2.77-1.78,1.06-.43,2.22-.64,3.48-.64s2.4,.21,3.46,.64c1.06,.41,1.97,.99,2.75,1.75,.79,.76,1.4,1.65,1.82,2.68,.44,1.03,.66,2.15,.66,3.36s-.22,2.34-.66,3.36c-.43,1.03-1.03,1.92-1.82,2.68-.77,.76-1.69,1.35-2.75,1.78-1.06,.41-2.21,.62-3.46,.62Zm0-1.56c.99,0,1.91-.17,2.75-.5,.85-.35,1.59-.83,2.2-1.44,.63-.63,1.12-1.36,1.47-2.18,.35-.84,.52-1.75,.52-2.75s-.17-1.9-.52-2.72c-.35-.84-.84-1.56-1.47-2.18-.62-.63-1.35-1.11-2.2-1.44-.84-.35-1.75-.52-2.75-.52s-1.92,.17-2.77,.52c-.85,.33-1.59,.81-2.23,1.44-.62,.62-1.1,1.34-1.47,2.18-.35,.82-.52,1.73-.52,2.72s.17,1.89,.52,2.72c.36,.84,.85,1.57,1.47,2.2,.63,.62,1.37,1.1,2.23,1.44,.85,.33,1.78,.5,2.77,.5Zm13.32,1.42v-16.57h1.75v15.06h9.28v1.52h-11.03Zm21.03,.14c-2.11,0-3.78-.61-4.99-1.82-1.22-1.22-1.82-3.01-1.82-5.4v-9.49h1.75v9.42c0,1.96,.44,3.4,1.33,4.33,.88,.93,2.13,1.4,3.74,1.4s2.88-.47,3.76-1.4c.88-.93,1.33-2.38,1.33-4.33v-9.42h1.7v9.49c0,2.38-.61,4.18-1.82,5.4-1.2,1.22-2.86,1.82-4.97,1.82Zm19.98,0c-1.25,0-2.4-.21-3.46-.62-1.06-.43-1.97-1.02-2.75-1.78-.77-.76-1.38-1.65-1.82-2.68-.43-1.03-.64-2.15-.64-3.36s.21-2.34,.64-3.36c.44-1.03,1.05-1.92,1.82-2.68,.79-.76,1.71-1.34,2.77-1.75,1.06-.43,2.21-.64,3.46-.64s2.33,.21,3.39,.62c1.06,.39,1.95,.99,2.68,1.8l-1.11,1.11c-.68-.69-1.43-1.19-2.25-1.49-.82-.32-1.7-.47-2.65-.47-.99,0-1.92,.17-2.77,.52-.85,.33-1.59,.81-2.23,1.44-.63,.62-1.13,1.34-1.49,2.18-.35,.82-.52,1.73-.52,2.72s.17,1.91,.52,2.75c.36,.82,.86,1.55,1.49,2.18,.63,.62,1.37,1.1,2.23,1.44,.85,.33,1.77,.5,2.77,.5s1.83-.16,2.65-.47c.82-.32,1.57-.82,2.25-1.52l1.11,1.11c-.72,.8-1.62,1.41-2.68,1.82-1.06,.41-2.19,.62-3.41,.62Zm10.53-.14v-16.57h1.75v16.57h-1.75Zm15.1,.14c-1.25,0-2.41-.21-3.48-.62-1.06-.43-1.98-1.02-2.77-1.78-.77-.77-1.38-1.66-1.82-2.68-.43-1.03-.64-2.15-.64-3.36s.21-2.33,.64-3.34c.44-1.03,1.05-1.92,1.82-2.68,.79-.77,1.71-1.37,2.77-1.78,1.06-.43,2.22-.64,3.48-.64s2.4,.21,3.46,.64c1.06,.41,1.97,.99,2.75,1.75,.79,.76,1.4,1.65,1.82,2.68,.44,1.03,.66,2.15,.66,3.36s-.22,2.34-.66,3.36c-.43,1.03-1.03,1.92-1.82,2.68-.77,.76-1.69,1.35-2.75,1.78-1.06,.41-2.21,.62-3.46,.62Zm0-1.56c.99,0,1.91-.17,2.75-.5,.85-.35,1.59-.83,2.2-1.44,.63-.63,1.12-1.36,1.47-2.18,.35-.84,.52-1.75,.52-2.75s-.17-1.9-.52-2.72c-.35-.84-.84-1.56-1.47-2.18-.62-.63-1.35-1.11-2.2-1.44-.84-.35-1.75-.52-2.75-.52s-1.92,.17-2.77,.52c-.85,.33-1.59,.81-2.23,1.44-.62,.62-1.11,1.34-1.47,2.18-.35,.82-.52,1.73-.52,2.72s.17,1.89,.52,2.72c.36,.84,.85,1.57,1.47,2.2,.63,.62,1.37,1.1,2.23,1.44,.85,.33,1.78,.5,2.77,.5Zm13.32,1.42v-16.57h1.44l11.43,14.39h-.76v-14.39h1.73v16.57h-1.44l-11.41-14.39h.76v14.39h-1.75Zm21.53-9.16h8.76v1.49h-8.76v-1.49Zm.19,7.65h9.97v1.52h-11.72v-16.57h11.36v1.52h-9.61v13.54Zm19.36,1.66c-1.23,0-2.41-.2-3.55-.59-1.12-.41-1.99-.93-2.6-1.56l.69-1.35c.58,.57,1.36,1.05,2.34,1.44,.99,.38,2.04,.57,3.12,.57s1.88-.13,2.53-.38c.66-.27,1.14-.62,1.44-1.07,.32-.44,.47-.93,.47-1.47,0-.65-.19-1.17-.57-1.56-.36-.39-.84-.7-1.44-.92-.6-.24-1.26-.44-1.99-.62-.73-.17-1.45-.36-2.18-.54-.73-.21-1.4-.47-2.01-.8-.6-.33-1.09-.77-1.47-1.3-.36-.55-.54-1.27-.54-2.15,0-.82,.21-1.57,.64-2.25,.44-.69,1.11-1.25,2.01-1.66,.9-.43,2.05-.64,3.46-.64,.93,0,1.85,.13,2.77,.4,.91,.25,1.7,.61,2.37,1.07l-.59,1.4c-.71-.47-1.47-.82-2.27-1.04-.79-.22-1.56-.33-2.3-.33-.99,0-1.82,.13-2.46,.4-.65,.27-1.13,.63-1.44,1.09-.3,.44-.45,.95-.45,1.52,0,.65,.18,1.17,.54,1.56,.38,.39,.87,.7,1.47,.92,.62,.22,1.29,.42,2.01,.59,.72,.17,1.44,.36,2.15,.57,.72,.21,1.39,.47,1.99,.8,.62,.32,1.1,.74,1.47,1.28,.38,.54,.57,1.24,.57,2.11,0,.8-.22,1.55-.66,2.25-.44,.68-1.12,1.23-2.04,1.66-.9,.41-2.06,.62-3.48,.62Zm17.61-.14v-16.57h1.75v16.57h-1.75Zm7.85,0v-16.57h1.44l11.43,14.39h-.76v-14.39h1.73v16.57h-1.44l-11.41-14.39h.76v14.39h-1.75Zm21.53-8.55h8.76v1.52h-8.76v-1.52Zm.19,8.55h-1.75v-16.57h11.36v1.52h-9.61v15.06Zm20.98,.14c-1.25,0-2.41-.21-3.48-.62-1.06-.43-1.98-1.02-2.77-1.78-.77-.77-1.38-1.66-1.82-2.68-.43-1.03-.64-2.15-.64-3.36s.21-2.33,.64-3.34c.44-1.03,1.05-1.92,1.82-2.68,.79-.77,1.71-1.37,2.77-1.78,1.06-.43,2.22-.64,3.48-.64s2.4,.21,3.46,.64c1.06,.41,1.97,.99,2.75,1.75,.79,.76,1.4,1.65,1.82,2.68,.44,1.03,.66,2.15,.66,3.36s-.22,2.34-.66,3.36c-.43,1.03-1.03,1.92-1.82,2.68-.77,.76-1.69,1.35-2.75,1.78-1.06,.41-2.21,.62-3.46,.62Zm0-1.56c.99,0,1.91-.17,2.75-.5,.85-.35,1.59-.83,2.2-1.44,.63-.63,1.12-1.36,1.47-2.18,.35-.84,.52-1.75,.52-2.75s-.17-1.9-.52-2.72c-.35-.84-.84-1.56-1.47-2.18-.62-.63-1.35-1.11-2.2-1.44-.84-.35-1.75-.52-2.75-.52s-1.92,.17-2.77,.52c-.85,.33-1.6,.81-2.23,1.44-.62,.62-1.11,1.34-1.47,2.18-.35,.82-.52,1.73-.52,2.72s.17,1.89,.52,2.72c.36,.84,.85,1.57,1.47,2.2,.63,.62,1.37,1.1,2.23,1.44,.85,.33,1.78,.5,2.77,.5Zm13.32,1.42v-16.57h6.2c1.4,0,2.61,.23,3.62,.69,1.01,.44,1.78,1.09,2.32,1.94,.55,.84,.83,1.85,.83,3.05s-.28,2.18-.83,3.03c-.54,.84-1.31,1.48-2.32,1.94-1.01,.44-2.22,.66-3.62,.66h-5.23l.78-.8v6.06h-1.75Zm11.32,0l-4.26-6.01h1.89l4.28,6.01h-1.92Zm-9.56-5.92l-.78-.83h5.18c1.66,0,2.91-.36,3.76-1.09,.87-.73,1.3-1.74,1.3-3.05s-.43-2.35-1.3-3.08c-.85-.73-2.11-1.09-3.76-1.09h-5.18l.78-.83v9.97Zm16.06,5.92v-16.57h1.44l7.58,12.93h-.76l7.5-12.93h1.44v16.57h-1.68v-13.94h.4l-6.91,11.84h-.83l-6.96-11.84h.45v13.94h-1.68Zm20.67,0l7.58-16.57h1.73l7.58,16.57h-1.85l-6.96-15.55h.71l-6.96,15.55h-1.82Zm2.98-4.43l.52-1.42h9.63l.52,1.42h-10.68Zm3.93-13.49l3.24-2.94h2.25l-3.84,2.94h-1.66Zm15.81,17.92v-15.06h-5.82v-1.52h13.4v1.52h-5.82v15.06h-1.75Zm11.08,0v-16.57h1.75v16.57h-1.75Zm15.05,.14c-1.25,0-2.4-.21-3.46-.62-1.06-.43-1.97-1.02-2.75-1.78-.77-.76-1.38-1.65-1.82-2.68-.43-1.03-.64-2.15-.64-3.36s.21-2.34,.64-3.36c.44-1.03,1.05-1.92,1.82-2.68,.79-.76,1.71-1.34,2.77-1.75,1.06-.43,2.21-.64,3.46-.64s2.33,.21,3.39,.62c1.06,.39,1.95,.99,2.68,1.8l-1.11,1.11c-.68-.69-1.43-1.19-2.25-1.49-.82-.32-1.7-.47-2.65-.47-.99,0-1.92,.17-2.77,.52-.85,.33-1.59,.81-2.23,1.44-.63,.62-1.13,1.34-1.49,2.18-.35,.82-.52,1.73-.52,2.72s.17,1.91,.52,2.75c.36,.82,.86,1.55,1.49,2.18,.63,.62,1.37,1.1,2.23,1.44,.85,.33,1.78,.5,2.77,.5s1.83-.16,2.65-.47c.82-.32,1.57-.82,2.25-1.52l1.11,1.11c-.72,.8-1.62,1.41-2.68,1.82-1.06,.41-2.19,.62-3.41,.62Zm7.46-.14l7.58-16.57h1.73l7.58,16.57h-1.85l-6.96-15.55h.71l-6.96,15.55h-1.82Zm2.98-4.43l.52-1.42h9.63l.52,1.42h-10.68Zm21.92,4.57c-1.23,0-2.41-.2-3.55-.59-1.12-.41-1.99-.93-2.6-1.56l.69-1.35c.58,.57,1.37,1.05,2.34,1.44,.99,.38,2.04,.57,3.12,.57s1.89-.13,2.53-.38c.66-.27,1.14-.62,1.44-1.07,.32-.44,.47-.93,.47-1.47,0-.65-.19-1.17-.57-1.56-.36-.39-.84-.7-1.44-.92-.6-.24-1.26-.44-1.99-.62-.73-.17-1.45-.36-2.18-.54-.73-.21-1.4-.47-2.01-.8-.6-.33-1.09-.77-1.47-1.3-.36-.55-.54-1.27-.54-2.15,0-.82,.21-1.57,.64-2.25,.44-.69,1.11-1.25,2.01-1.66,.9-.43,2.05-.64,3.46-.64,.93,0,1.85,.13,2.77,.4,.92,.25,1.7,.61,2.37,1.07l-.59,1.4c-.71-.47-1.47-.82-2.27-1.04-.79-.22-1.56-.33-2.3-.33-.99,0-1.82,.13-2.46,.4-.65,.27-1.13,.63-1.44,1.09-.3,.44-.45,.95-.45,1.52,0,.65,.18,1.17,.54,1.56,.38,.39,.87,.7,1.47,.92,.62,.22,1.29,.42,2.01,.59,.73,.17,1.44,.36,2.15,.57,.73,.21,1.39,.47,1.99,.8,.62,.32,1.11,.74,1.47,1.28,.38,.54,.57,1.24,.57,2.11,0,.8-.22,1.55-.66,2.25-.44,.68-1.12,1.23-2.04,1.66-.9,.41-2.06,.62-3.48,.62Z" />
		</g>
	</g>
</svg>