<?xml version="1.0" encoding="UTF-8"?>
<svg xmlns="http://www.w3.org/2000/svg" xmlns:xlink="http://www.w3.org/1999/xlink"
	viewBox="0 0 263 70" aria-label="Logo de BI Consulting SRL" role="img">
	<defs>
		<style>.g{fill:#16629c;}.h{clip-path:url(#b);}.i{fill:none;}.j{fill:#182641;}</style>
		<clipPath id="b">
			<rect class="i" x="5.41" y="1.24" width="47.09" height="66.36" />
		</clipPath>
	</defs>
	<g id="a">
		<g class="h">
			<g>
				<path class="j"
					d="M42.96,45.73l1.69,1.96s-13.02,9.07-23.31,13.23c-7.48,3.03-13.93,3.04-14.05-.16-.1-2.53,.85-3.8,1.24-4.22-4.26,3.89-4.02,9.28-.11,10.51,4.03,1.27,10.69,.57,21.9-5.07,11.21-5.64,17.48-10.83,17.48-10.83l1.58,1.91,3.12-8.65-9.54,1.31h0Z" />
				<path class="g"
					d="M9.72,25.51l1.01-.73v26.5h.51V24.41l1.28-.92v12.4h.51v-12.77l1.45-1.04V61.97c.17-.03,.34-.06,.51-.09V21.71l1.01-.73V61.66c1.67-.38,3.48-.95,5.35-1.71,2.37-.96,4.88-2.17,7.35-3.48V24.43l-6.31-2.15h-.06l-6.33-2.18-1.01,.72-.51,.37-1.45,1.04-.51,.37-1.28,.92-.51,.37-1.86,1.33V61.73c.17,.1,.34,.19,.53,.28,.11,.03,.21,.05,.33,.07V25.51h0Z" />
				<path class="j"
					d="M41.26,10.85l-7.92-4.91v-1.85l13.09,6.02L33.43,1.24l-7.32,3.8v5.07l7.23-2.75,7.92,3.49Z" />
				<path class="j"
					d="M41.26,17.88l-7.92-4.91v-1.85l13.09,6.02-13-8.87-7.32,3.8v5.07l7.23-2.75,7.92,3.49Z" />
				<path class="j"
					d="M46.43,24.16l-13-8.87-7.32,3.8v2.88l3.04,1.04,4.19-1.59,7.92,3.49-7.92-4.91v-1.85l13.09,6.02Z" />
				<path class="j"
					d="M46.43,31.19l-13-8.87-3.21,1.67v5.64l3.13-1.19,7.92,3.49-7.92-4.91v-1.85l13.09,6.02Z" />
				<path class="j"
					d="M46.43,38.21l-13-8.87-3.21,1.67v5.64l3.13-1.19,7.92,3.49-7.92-4.91v-1.85l13.09,6.02Z" />
				<path class="j"
					d="M33.43,36.36l-3.21,1.67v5.64l3.13-1.19,7.92,3.49-7.92-4.91v-1.85l11.18,5.14,.52-.07-11.61-7.93Z" />
				<path class="j"
					d="M33.34,48.09v-1.85l7.17,3.28c.34-.22,.66-.43,.97-.63-2.69-1.83-5.37-3.67-8.06-5.5l-3.21,1.67v5.64l3.13-1.19,4.23,1.86c.18-.11,.36-.22,.54-.33l-4.76-2.95h0Z" />
				<path class="j"
					d="M33.34,53.16c.24,.11,.48,.22,.71,.33,.74-.43,1.45-.86,2.15-1.28l-2.78-1.9-3.22,1.67v3.69c1.06-.58,2.11-1.17,3.13-1.76v-.75h0Z" />
			</g>
		</g>
		<g id="c">
			<g>
				<path class="j"
					d="M61.24,50.12c-.68,0-1.32-.11-1.94-.33-.62-.22-1.1-.5-1.44-.85l.38-.74c.32,.31,.75,.57,1.29,.79s1.11,.32,1.71,.32,1.04-.07,1.4-.21c.36-.14,.62-.34,.79-.58,.17-.24,.25-.51,.25-.81,0-.36-.1-.64-.31-.86-.2-.22-.47-.39-.8-.51-.33-.13-.69-.24-1.09-.33-.4-.1-.8-.2-1.2-.31-.4-.11-.77-.25-1.1-.44-.33-.18-.6-.42-.81-.72-.2-.3-.31-.69-.31-1.18,0-.45,.12-.86,.36-1.24s.6-.68,1.1-.91,1.13-.34,1.9-.34c.51,0,1.02,.07,1.52,.21,.5,.14,.94,.34,1.3,.59l-.33,.77c-.39-.26-.8-.45-1.24-.57-.44-.12-.86-.18-1.27-.18-.55,0-1,.07-1.35,.22-.36,.15-.62,.34-.79,.59s-.25,.53-.25,.84c0,.36,.1,.64,.31,.86,.2,.22,.47,.39,.81,.51,.33,.12,.7,.23,1.1,.32,.4,.1,.79,.2,1.19,.31,.39,.11,.76,.26,1.09,.44,.33,.18,.6,.41,.81,.71,.2,.29,.31,.68,.31,1.16,0,.44-.12,.85-.36,1.23-.24,.38-.61,.68-1.11,.91-.5,.23-1.14,.34-1.92,.34Z" />
				<path class="j"
					d="M71.09,50.12c-.68,0-1.32-.11-1.9-.34-.58-.23-1.09-.55-1.52-.98-.43-.42-.76-.91-1-1.47s-.36-1.17-.36-1.84,.12-1.28,.36-1.84,.57-1.05,1-1.47,.93-.75,1.51-.98c.58-.23,1.22-.34,1.91-.34s1.32,.12,1.9,.34c.58,.23,1.09,.55,1.51,.97,.43,.42,.76,.91,1,1.47s.36,1.18,.36,1.85-.12,1.28-.36,1.85c-.24,.56-.57,1.05-1,1.47s-.93,.74-1.51,.97c-.58,.23-1.21,.34-1.9,.34Zm0-.86c.55,0,1.05-.09,1.51-.28,.46-.19,.87-.45,1.21-.79,.34-.34,.61-.74,.8-1.2s.29-.96,.29-1.5-.1-1.05-.29-1.5c-.19-.46-.46-.85-.8-1.2-.34-.34-.75-.61-1.21-.79-.46-.19-.97-.28-1.51-.28s-1.05,.09-1.52,.28c-.47,.19-.88,.45-1.22,.79s-.62,.74-.81,1.2c-.19,.45-.29,.96-.29,1.5s.09,1.04,.29,1.49c.19,.46,.46,.86,.81,1.2s.75,.61,1.22,.79c.47,.19,.98,.28,1.52,.28Z" />
				<path class="j" d="M78.41,50.04v-9.1h.96v8.27h5.1v.83h-6.06Z" />
				<path class="j"
					d="M89.95,50.12c-1.16,0-2.08-.33-2.74-1-.67-.67-1-1.66-1-2.96v-5.21h.96v5.17c0,1.07,.24,1.87,.73,2.38s1.17,.77,2.05,.77,1.58-.26,2.07-.77,.73-1.3,.73-2.38v-5.17h.94v5.21c0,1.31-.33,2.3-1,2.96-.66,.67-1.58,1-2.74,1Z" />
				<path class="j"
					d="M100.92,50.12c-.69,0-1.32-.11-1.9-.34-.58-.23-1.08-.55-1.51-.97s-.76-.91-.99-1.47c-.24-.56-.36-1.18-.36-1.85s.12-1.28,.36-1.85c.24-.56,.57-1.05,1-1.47,.43-.42,.93-.74,1.51-.97,.58-.23,1.21-.34,1.9-.34s1.28,.11,1.86,.33c.58,.22,1.07,.55,1.47,.99l-.61,.61c-.37-.38-.78-.66-1.23-.83-.45-.17-.94-.25-1.46-.25-.55,0-1.05,.09-1.52,.28-.47,.19-.88,.45-1.22,.79s-.62,.74-.81,1.2c-.2,.45-.29,.96-.29,1.5s.1,1.05,.29,1.5c.19,.46,.47,.85,.81,1.2s.75,.61,1.22,.79c.47,.19,.97,.28,1.52,.28s1-.09,1.46-.26c.45-.17,.86-.45,1.23-.83l.61,.61c-.4,.44-.89,.78-1.47,1-.58,.23-1.21,.34-1.87,.34Z" />
				<path class="j" d="M106.71,50.04v-9.1h.96v9.1h-.96Z" />
				<path class="j"
					d="M115,50.12c-.68,0-1.32-.11-1.9-.34-.58-.23-1.09-.55-1.52-.98-.43-.42-.76-.91-1-1.47-.24-.56-.36-1.17-.36-1.84s.12-1.28,.36-1.84c.24-.56,.57-1.05,1-1.47,.43-.42,.93-.75,1.51-.98,.58-.23,1.22-.34,1.91-.34s1.32,.12,1.9,.34c.58,.23,1.08,.55,1.51,.97,.43,.42,.76,.91,1,1.47s.36,1.18,.36,1.85-.12,1.28-.36,1.85c-.24,.56-.57,1.05-1,1.47-.43,.42-.93,.74-1.51,.97-.58,.23-1.21,.34-1.9,.34Zm0-.86c.55,0,1.05-.09,1.51-.28,.46-.19,.87-.45,1.21-.79s.61-.74,.8-1.2,.29-.96,.29-1.5-.1-1.05-.29-1.5c-.19-.46-.46-.85-.8-1.2s-.75-.61-1.21-.79c-.46-.19-.97-.28-1.51-.28s-1.05,.09-1.52,.28c-.47,.19-.88,.45-1.22,.79s-.62,.74-.81,1.2c-.19,.45-.29,.96-.29,1.5s.1,1.04,.29,1.49c.19,.46,.46,.86,.81,1.2s.75,.61,1.22,.79c.47,.19,.97,.28,1.52,.28Z" />
				<path class="j"
					d="M122.32,50.04v-9.1h.79l6.28,7.9h-.42v-7.9h.95v9.1h-.79l-6.27-7.9h.42v7.9h-.96Z" />
				<path class="j"
					d="M134.24,49.21h5.47v.83h-6.43v-9.1h6.24v.83h-5.28v7.44Zm-.1-4.2h4.81v.82h-4.81v-.82Z" />
				<path class="j"
					d="M144.88,50.12c-.68,0-1.32-.11-1.94-.33-.62-.22-1.1-.5-1.44-.85l.38-.74c.32,.31,.75,.57,1.29,.79,.54,.21,1.11,.32,1.71,.32s1.04-.07,1.4-.21,.62-.34,.79-.58c.17-.24,.25-.51,.25-.81,0-.36-.1-.64-.31-.86-.2-.22-.47-.39-.8-.51s-.69-.24-1.09-.33-.8-.2-1.2-.31c-.4-.11-.76-.25-1.1-.44-.33-.18-.6-.42-.81-.72-.2-.3-.31-.69-.31-1.18,0-.45,.12-.86,.36-1.24s.6-.68,1.1-.91,1.13-.34,1.9-.34c.51,0,1.02,.07,1.52,.21s.94,.34,1.3,.59l-.32,.77c-.39-.26-.8-.45-1.24-.57-.44-.12-.86-.18-1.27-.18-.55,0-1,.07-1.35,.22-.36,.15-.62,.34-.79,.59s-.25,.53-.25,.84c0,.36,.1,.64,.31,.86,.2,.22,.47,.39,.81,.51,.33,.12,.7,.23,1.1,.32,.4,.1,.79,.2,1.19,.31,.39,.11,.76,.26,1.09,.44,.33,.18,.6,.41,.81,.71,.2,.29,.3,.68,.3,1.16,0,.44-.12,.85-.36,1.23-.24,.38-.61,.68-1.11,.91-.5,.23-1.14,.34-1.92,.34Z" />
				<path class="j" d="M154.55,50.04v-9.1h.96v9.1h-.96Z" />
				<path class="j"
					d="M158.86,50.04v-9.1h.79l6.28,7.9h-.42v-7.9h.95v9.1h-.79l-6.27-7.9h.42v7.9h-.96Z" />
				<path class="j"
					d="M170.78,50.04h-.96v-9.1h6.24v.83h-5.28v8.27Zm-.1-4.69h4.81v.83h-4.81v-.83Z" />
				<path class="j"
					d="M182.3,50.12c-.68,0-1.32-.11-1.9-.34-.58-.23-1.09-.55-1.52-.98-.43-.42-.76-.91-1-1.47s-.36-1.17-.36-1.84,.12-1.28,.36-1.84,.57-1.05,1-1.47,.93-.75,1.51-.98c.58-.23,1.22-.34,1.91-.34s1.32,.12,1.9,.34c.58,.23,1.09,.55,1.51,.97,.43,.42,.76,.91,1,1.47s.36,1.18,.36,1.85-.12,1.28-.36,1.85c-.24,.56-.57,1.05-1,1.47s-.93,.74-1.51,.97c-.58,.23-1.21,.34-1.9,.34Zm0-.86c.55,0,1.05-.09,1.51-.28,.46-.19,.87-.45,1.21-.79,.34-.34,.61-.74,.8-1.2s.29-.96,.29-1.5-.1-1.05-.29-1.5c-.19-.46-.46-.85-.8-1.2-.34-.34-.75-.61-1.21-.79-.46-.19-.97-.28-1.51-.28s-1.05,.09-1.52,.28c-.47,.19-.88,.45-1.22,.79s-.62,.74-.81,1.2c-.19,.45-.29,.96-.29,1.5s.09,1.04,.29,1.49c.19,.46,.46,.86,.81,1.2s.75,.61,1.22,.79c.47,.19,.98,.28,1.52,.28Z" />
				<path class="j"
					d="M189.62,50.04v-9.1h3.41c.77,0,1.43,.12,1.99,.37s.98,.6,1.28,1.07c.3,.46,.45,1.02,.45,1.68s-.15,1.19-.45,1.66c-.3,.46-.73,.82-1.28,1.07s-1.22,.37-1.99,.37h-2.87l.43-.44v3.33h-.96Zm.96-3.25l-.43-.46h2.85c.91,0,1.6-.2,2.07-.6,.47-.4,.71-.96,.71-1.68s-.24-1.29-.71-1.69c-.47-.4-1.16-.6-2.07-.6h-2.85l.43-.46v5.47Zm5.25,3.25l-2.34-3.3h1.04l2.35,3.3h-1.05Z" />
				<path class="j"
					d="M199.41,50.04v-9.1h.79l4.16,7.1h-.42l4.12-7.1h.79v9.1h-.92v-7.66h.22l-3.8,6.5h-.46l-3.82-6.5h.25v7.66h-.92Z" />
				<path class="j"
					d="M210.76,50.04l4.16-9.1h.95l4.16,9.1h-1.01l-3.82-8.54h.39l-3.82,8.54h-1Zm1.64-2.43l.29-.78h5.29l.29,.78h-5.86Zm2.16-7.41l1.78-1.61h1.24l-2.11,1.61h-.91Z" />
				<path class="j" d="M223.24,50.04v-8.27h-3.2v-.83h7.36v.83h-3.2v8.27h-.96Z" />
				<path class="j" d="M229.32,50.04v-9.1h.96v9.1h-.96Z" />
				<path class="j"
					d="M237.59,50.12c-.68,0-1.32-.11-1.9-.34-.58-.23-1.08-.55-1.51-.97s-.76-.91-.99-1.47c-.24-.56-.36-1.18-.36-1.85s.12-1.28,.36-1.85,.57-1.05,1-1.47c.43-.42,.93-.74,1.51-.97,.58-.23,1.21-.34,1.9-.34s1.28,.11,1.86,.33c.58,.22,1.07,.55,1.47,.99l-.61,.61c-.37-.38-.79-.66-1.24-.83-.45-.17-.94-.25-1.46-.25s-1.05,.09-1.52,.28c-.47,.19-.88,.45-1.22,.79s-.62,.74-.81,1.2c-.19,.45-.29,.96-.29,1.5s.1,1.05,.29,1.5c.2,.46,.47,.85,.81,1.2s.75,.61,1.22,.79c.47,.19,.97,.28,1.52,.28s1-.09,1.46-.26c.45-.17,.86-.45,1.24-.83l.61,.61c-.4,.44-.89,.78-1.47,1-.58,.23-1.21,.34-1.87,.34Z" />
				<path class="j"
					d="M241.69,50.04l4.16-9.1h.95l4.16,9.1h-1.01l-3.82-8.54h.39l-3.82,8.54h-1Zm1.64-2.43l.29-.78h5.29l.29,.78h-5.86Z" />
				<path class="j"
					d="M255.36,50.12c-.68,0-1.32-.11-1.94-.33-.62-.22-1.1-.5-1.44-.85l.38-.74c.32,.31,.75,.57,1.29,.79s1.11,.32,1.71,.32,1.04-.07,1.4-.21c.36-.14,.62-.34,.79-.58,.17-.24,.25-.51,.25-.81,0-.36-.1-.64-.31-.86-.2-.22-.47-.39-.8-.51-.33-.13-.69-.24-1.09-.33-.4-.1-.8-.2-1.2-.31-.4-.11-.77-.25-1.1-.44-.33-.18-.6-.42-.81-.72-.2-.3-.31-.69-.31-1.18,0-.45,.12-.86,.36-1.24s.6-.68,1.1-.91,1.13-.34,1.9-.34c.51,0,1.02,.07,1.52,.21,.5,.14,.94,.34,1.3,.59l-.33,.77c-.39-.26-.8-.45-1.24-.57-.44-.12-.86-.18-1.27-.18-.55,0-1,.07-1.35,.22-.36,.15-.62,.34-.79,.59s-.25,.53-.25,.84c0,.36,.1,.64,.31,.86,.2,.22,.47,.39,.81,.51,.33,.12,.7,.23,1.1,.32,.4,.1,.79,.2,1.19,.31,.39,.11,.76,.26,1.09,.44,.33,.18,.6,.41,.81,.71,.2,.29,.31,.68,.31,1.16,0,.44-.12,.85-.36,1.23-.24,.38-.61,.68-1.11,.91-.5,.23-1.14,.34-1.92,.34Z" />
			</g>
			<g>
				<path class="j"
					d="M69.53,25.07c.64,.45,1.15,1.02,1.54,1.73,.38,.7,.58,1.47,.58,2.3v.05c0,.67-.13,1.31-.38,1.91-.26,.6-.61,1.12-1.06,1.56-.45,.44-.97,.79-1.56,1.04s-1.22,.38-1.9,.38h-4.78l1.15-2.88h3.62c.56,0,1.04-.2,1.43-.59s.59-.87,.59-1.43v-.05c0-.56-.2-1.04-.59-1.43-.39-.39-.87-.59-1.43-.59h-5.88v6.96h-2.88V17.25h7.58c.67,0,1.31,.13,1.91,.38,.6,.26,1.12,.61,1.56,1.06,.44,.45,.79,.97,1.04,1.56,.26,.59,.38,1.22,.38,1.9v.05c0,.54-.08,1.06-.25,1.55-.17,.49-.4,.93-.68,1.33Zm-1.94-2.93c0-.56-.2-1.04-.59-1.43-.39-.39-.87-.59-1.43-.59h-4.7v4.08h4.7c.56,0,1.04-.2,1.43-.59,.39-.39,.59-.87,.59-1.43v-.05Z" />
				<path class="j" d="M76.21,34.05h-2.88V17.27h2.88v16.78Z" />
				<path class="j"
					d="M97.37,31.79c-.8,.8-1.73,1.43-2.79,1.88-1.06,.46-2.19,.68-3.41,.68s-2.33-.23-3.4-.68-1.99-1.08-2.78-1.87c-.79-.79-1.42-1.72-1.87-2.78-.46-1.06-.68-2.2-.68-3.4s.23-2.33,.68-3.4c.46-1.06,1.08-1.99,1.87-2.78,.79-.79,1.72-1.42,2.78-1.87s2.2-.68,3.4-.68,2.35,.23,3.41,.68c1.06,.46,1.98,1.08,2.79,1.88l-2.04,2.04c-.56-.56-1.19-.99-1.9-1.28-.7-.3-1.46-.44-2.26-.44s-1.53,.15-2.23,.44c-.7,.3-1.34,.72-1.9,1.28-.56,.56-.99,1.19-1.28,1.9s-.44,1.45-.44,2.23,.15,1.53,.44,2.24c.3,.71,.72,1.35,1.28,1.91,.56,.56,1.19,.98,1.9,1.27s1.45,.43,2.23,.43,1.55-.14,2.26-.43,1.33-.71,1.9-1.27l2.04,2.02Z" />
				<path class="j"
					d="M105.84,16.89c1.2,0,2.33,.23,3.4,.68s1.99,1.08,2.78,1.87,1.42,1.72,1.87,2.78,.68,2.2,.68,3.4-.23,2.33-.68,3.4-1.08,1.99-1.87,2.78-1.72,1.42-2.78,1.87-2.2,.68-3.4,.68-2.33-.23-3.4-.68-1.99-1.08-2.78-1.87c-.79-.79-1.42-1.72-1.87-2.78-.46-1.06-.68-2.2-.68-3.4s.23-2.33,.68-3.4c.46-1.06,1.08-1.99,1.87-2.78,.79-.79,1.72-1.42,2.78-1.87s2.2-.68,3.4-.68Zm0,2.88c-.78,0-1.53,.15-2.23,.44-.7,.3-1.34,.72-1.9,1.28-.56,.56-.99,1.19-1.29,1.9-.29,.7-.44,1.45-.44,2.23s.15,1.53,.44,2.24c.3,.71,.72,1.35,1.29,1.91,.56,.56,1.19,.98,1.9,1.27s1.45,.43,2.23,.43,1.53-.14,2.24-.43c.71-.29,1.35-.71,1.91-1.27s.98-1.2,1.27-1.91c.29-.71,.43-1.46,.43-2.24s-.14-1.53-.43-2.23c-.29-.7-.71-1.34-1.27-1.9s-1.2-.99-1.91-1.28c-.71-.3-1.46-.44-2.24-.44Z" />
				<path class="j"
					d="M128.76,17.23v16.8h-3.12l-6.74-11.5v11.5h-2.88V17.23h3.12l6.74,11.5v-11.5h2.88Z" />
				<path class="j"
					d="M142.28,29.25c0,.78-.13,1.49-.38,2.12-.26,.63-.62,1.17-1.09,1.61-.47,.44-1.04,.78-1.72,1.02-.67,.24-1.42,.36-2.26,.36-1.33,0-2.51-.21-3.55-.64-1.04-.42-1.9-.91-2.57-1.45l1.99-1.99c.53,.48,1.12,.85,1.78,1.1,.4,.16,.78,.26,1.13,.31,.35,.05,.64,.07,.86,.07,.42,0,.79-.05,1.14-.16,.34-.1,.64-.24,.9-.42,.54-.4,.82-.93,.82-1.58,0-.4-.14-.76-.43-1.08-.22-.26-.51-.46-.86-.62-.29-.16-.59-.29-.91-.38-.32-.1-.61-.18-.87-.26-.08-.03-.15-.05-.21-.06-.06,0-.12-.03-.17-.06-.03,0-.08-.02-.14-.05-.34-.1-.82-.26-1.45-.5-.63-.24-1.26-.57-1.88-.98-1.46-.98-2.18-2.18-2.18-3.6,0-.94,.16-1.74,.49-2.39s.76-1.18,1.28-1.58,1.12-.7,1.76-.88c.65-.18,1.28-.26,1.91-.26,1.15,0,2.12,.14,2.9,.41,.78,.27,1.41,.54,1.87,.82,.24,.14,.44,.28,.61,.42,.17,.14,.32,.26,.44,.37l-2.04,2.06c-.43-.43-.87-.76-1.32-.98-.67-.32-1.38-.48-2.11-.48-.32,0-.64,.04-.96,.12s-.6,.18-.84,.31c-.71,.43-1.06,1-1.06,1.7,0,.43,.14,.8,.43,1.1,.21,.24,.5,.46,.87,.65,.3,.16,.62,.29,.96,.38s.65,.18,.94,.26l.29,.07c.08,.03,.23,.08,.46,.14,.22,.06,.49,.16,.79,.29,.3,.13,.64,.28,1,.46,.36,.18,.71,.38,1.07,.62,1.55,1.02,2.33,2.23,2.33,3.62Z" />
				<path class="j"
					d="M157.71,17.25v10.08c0,.98-.18,1.89-.55,2.75-.37,.86-.87,1.6-1.51,2.24-.64,.64-1.39,1.14-2.24,1.51-.86,.37-1.77,.55-2.75,.55s-1.89-.18-2.75-.55c-.86-.37-1.6-.87-2.24-1.51-.64-.64-1.14-1.39-1.51-2.24-.37-.86-.55-1.77-.55-2.75v-10.08h2.88v10.08c0,.56,.1,1.09,.31,1.6,.21,.5,.51,.96,.91,1.36,.4,.4,.85,.7,1.36,.91s1.04,.31,1.6,.31c1.15,0,2.14-.41,2.95-1.22,.4-.4,.7-.85,.91-1.36s.31-1.04,.31-1.6v-10.08h2.88Z" />
				<path class="j" d="M168.75,31.17v2.88h-9.48V17.27h2.88v13.9h6.6Z" />
				<path class="j" d="M178.73,20.13h-4.92v13.92h-2.88v-13.92h-4.94v-2.88h12.74v2.88Z" />
				<path class="j" d="M183.05,34.05h-2.88V17.27h2.88v16.78Z" />
				<path class="j"
					d="M197.6,17.23v16.8h-3.12l-6.74-11.5v11.5h-2.88V17.23h3.12l6.74,11.5v-11.5h2.88Z" />
				<path class="j"
					d="M216.47,24.91c.02,.24,.04,.48,.04,.72,0,1.2-.23,2.33-.68,3.4s-1.08,1.99-1.87,2.78-1.72,1.42-2.78,1.87-2.2,.68-3.4,.68-2.33-.23-3.4-.68-1.99-1.08-2.78-1.87c-.79-.79-1.42-1.72-1.87-2.78-.46-1.06-.68-2.2-.68-3.4s.23-2.33,.68-3.4c.46-1.06,1.08-1.99,1.87-2.78,.79-.79,1.72-1.42,2.78-1.87s2.2-.68,3.4-.68,2.35,.23,3.41,.68c1.06,.46,1.98,1.08,2.76,1.88l-2.02,2.04c-.56-.56-1.2-.99-1.91-1.28-.71-.3-1.46-.44-2.24-.44s-1.53,.15-2.23,.44c-.7,.3-1.34,.72-1.9,1.28-.56,.56-.99,1.19-1.29,1.9-.29,.7-.44,1.45-.44,2.23s.15,1.53,.44,2.24c.3,.71,.72,1.35,1.29,1.91,.56,.56,1.19,.98,1.9,1.27s1.45,.43,2.23,.43,1.53-.14,2.24-.43c.71-.29,1.35-.71,1.91-1.27,.75-.78,1.26-1.69,1.54-2.71h-7.78l.72-2.88h9.98c.03,.24,.06,.48,.08,.72Z" />
				<path class="j"
					d="M234.58,29.25c0,.78-.13,1.49-.38,2.12-.26,.63-.62,1.17-1.09,1.61s-1.04,.78-1.72,1.02c-.67,.24-1.42,.36-2.26,.36-1.33,0-2.51-.21-3.55-.64-1.04-.42-1.9-.91-2.57-1.45l1.99-1.99c.53,.48,1.12,.85,1.78,1.1,.4,.16,.78,.26,1.13,.31,.35,.05,.64,.07,.86,.07,.42,0,.8-.05,1.14-.16,.34-.1,.64-.24,.9-.42,.54-.4,.82-.93,.82-1.58,0-.4-.14-.76-.43-1.08-.22-.26-.51-.46-.86-.62-.29-.16-.59-.29-.91-.38-.32-.1-.61-.18-.86-.26-.08-.03-.15-.05-.22-.06-.06,0-.12-.03-.17-.06-.03,0-.08-.02-.14-.05-.34-.1-.82-.26-1.45-.5-.63-.24-1.26-.57-1.88-.98-1.46-.98-2.18-2.18-2.18-3.6,0-.94,.16-1.74,.49-2.39s.76-1.18,1.28-1.58c.53-.41,1.12-.7,1.76-.88,.65-.18,1.28-.26,1.91-.26,1.15,0,2.12,.14,2.9,.41,.78,.27,1.41,.54,1.87,.82,.24,.14,.44,.28,.61,.42,.17,.14,.32,.26,.44,.37l-2.04,2.06c-.43-.43-.87-.76-1.32-.98-.67-.32-1.38-.48-2.11-.48-.32,0-.64,.04-.96,.12s-.6,.18-.84,.31c-.7,.43-1.06,1-1.06,1.7,0,.43,.14,.8,.43,1.1,.21,.24,.5,.46,.86,.65,.3,.16,.62,.29,.96,.38s.65,.18,.94,.26l.29,.07c.08,.03,.23,.08,.46,.14s.49,.16,.79,.29c.3,.13,.64,.28,1,.46,.36,.18,.72,.38,1.07,.62,1.55,1.02,2.33,2.23,2.33,3.62Z" />
				<path class="j"
					d="M248.33,23.27c0,.61-.08,1.19-.25,1.74-.17,.55-.4,1.06-.7,1.52-.3,.46-.66,.88-1.08,1.26-.42,.38-.89,.68-1.4,.92l3.43,5.33h-3.43l-3.05-4.73h-1.97l1.18-2.88h1.25c.86,0,1.61-.31,2.23-.94,.29-.3,.51-.65,.67-1.03,.16-.38,.24-.78,.24-1.2s-.08-.82-.24-1.2c-.16-.38-.38-.72-.67-1.01-.62-.62-1.37-.94-2.23-.94h-3.41v13.92h-2.88V17.25h6.29c.83,0,1.61,.16,2.34,.48,.73,.32,1.36,.75,1.91,1.3s.98,1.18,1.3,1.91c.32,.73,.48,1.51,.48,2.34Z" />
				<path class="j" d="M259.37,31.17v2.88h-9.48V17.27h2.88v13.9h6.6Z" />
			</g>
		</g>
	</g>
	<g id="d" />
	<g id="e">
		<g id="f" />
	</g>
</svg>