<svg width="106" height="98" viewBox="0 0 106 98" fill="none" xmlns="http://www.w3.org/2000/svg">
<path d="M95.7089 52.3431C96.7326 41.0354 77.9502 12.5943 61.7395 4.52713C40.7185 -5.93423 15.436 2.25031 6.11573 26.1897C-2.5411 48.431 11.4228 68.4883 33.5959 73.1238C53.342 77.2543 95.1356 65.9794 95.7089 52.3431Z" fill="url(#paint0_linear_0_1)"/>
<path opacity="0.9" d="M95.7089 52.3431C96.7326 41.0354 77.9502 12.5943 61.7395 4.52713C40.7185 -5.93423 15.436 2.25031 6.11573 26.1897C-2.5411 48.431 11.4228 68.4883 33.5959 73.1238C53.342 77.2543 95.1356 65.9794 95.7089 52.3431Z" fill="white"/>
<path d="M52.9544 97.7239C82.188 97.7239 105.886 96.3403 105.886 94.6335C105.886 92.9267 82.188 91.5432 52.9544 91.5432C23.7209 91.5432 0.0224609 92.9267 0.0224609 94.6335C0.0224609 96.3403 23.7209 97.7239 52.9544 97.7239Z" fill="#F5F5F5"/>
<path d="M39.2117 17.309C38.3299 15.4581 36.3698 16.0751 36.5336 14.4971C36.6974 12.9192 35.1194 10.7243 32.7116 11.9337C30.3037 13.143 31.6387 16.0014 31.6387 16.0014C31.6387 16.0014 30.3255 20.9836 32.5587 22.5534C34.3386 23.7955 38.1879 22.7062 37.6037 20.9481C37.0195 19.19 40.0908 19.16 39.2117 17.309Z" fill="#263238"/>
<path d="M37.7456 22.3213C37.7319 22.3211 37.7187 22.3169 37.7075 22.3091C37.6963 22.3013 37.6877 22.2904 37.6828 22.2776C37.0494 20.596 37.9066 19.7879 38.6628 19.0754C39.2607 18.513 39.7767 18.027 39.5037 17.2053C39.1843 16.2498 38.5072 16.0068 37.9121 15.7912C37.317 15.5755 36.7955 15.3871 36.8447 14.5545C36.8546 14.0832 36.7451 13.617 36.5265 13.1994C36.3079 12.7818 35.9872 12.4262 35.5943 12.1657C35.062 11.8299 34.1802 11.5679 33.0008 12.2231C32.9849 12.2317 32.9662 12.2337 32.9488 12.2286C32.9314 12.2235 32.9167 12.2117 32.908 12.1958C32.8993 12.1798 32.8973 12.1611 32.9024 12.1437C32.9076 12.1263 32.9194 12.1116 32.9353 12.1029C33.9017 11.5569 34.8709 11.5569 35.6653 12.0511C36.0808 12.3223 36.4198 12.6957 36.6497 13.1355C36.8796 13.5752 36.9928 14.0666 36.9784 14.5627C36.9348 15.2943 37.3852 15.4554 37.9558 15.6547C38.5263 15.854 39.288 16.1351 39.6293 17.1534C39.9323 18.0571 39.3563 18.5976 38.7557 19.1682C37.994 19.8834 37.2078 20.626 37.8084 22.2203C37.8146 22.2377 37.8138 22.2568 37.8062 22.2737C37.7985 22.2905 37.7846 22.3037 37.7674 22.3104L37.7456 22.3213Z" fill="#263238"/>
<path d="M26.6017 30.2656C26.5252 30.4021 26.4788 30.4785 26.416 30.5768L26.2386 30.8498C26.1185 31.0272 25.9929 31.1965 25.8646 31.3658C25.6056 31.7026 25.3276 32.0244 25.0319 32.3295C24.427 32.9515 23.7422 33.4904 22.9953 33.932C22.2194 34.3891 21.3679 34.7035 20.481 34.8602C20.0304 34.9385 19.5731 34.9714 19.116 34.9584C18.8894 34.9584 18.6656 34.9421 18.4444 34.9093L18.2779 34.8902H18.1933L18.0841 34.8711C17.9368 34.846 17.7916 34.8095 17.65 34.7619C17.1747 34.5919 16.7317 34.3427 16.3396 34.0248C16.0015 33.7528 15.6849 33.4552 15.3923 33.1348C14.8547 32.5383 14.3662 31.8992 13.9317 31.2238C13.5031 30.5604 13.1127 29.8861 12.7524 29.2036C12.392 28.5211 12.0644 27.8386 11.7668 27.096L12.9025 26.52C13.3011 27.1288 13.7215 27.754 14.1474 28.3491C14.5733 28.9443 15.0128 29.5394 15.4742 30.0963C15.9173 30.6441 16.3961 31.1621 16.9074 31.647C17.142 31.8661 17.393 32.0668 17.6582 32.2476C17.8636 32.3928 18.0914 32.5035 18.3325 32.5752C18.3708 32.586 18.4102 32.5924 18.4499 32.5943H18.5564H18.671C18.8229 32.6025 18.9751 32.6025 19.1269 32.5943C19.4283 32.5805 19.728 32.5403 20.0224 32.4741C20.6165 32.3304 21.1834 32.0917 21.7013 31.7671C22.2433 31.4213 22.7396 31.0086 23.1782 30.5386C23.4068 30.3007 23.6227 30.051 23.8253 29.7906C23.9263 29.6622 24.0218 29.5176 24.1146 29.3947L24.2511 29.1954L24.3603 29.0262L26.6017 30.2656Z" fill="#B65B52"/>
<path d="M26.6645 27.4701C24.3686 27.582 23.8035 29.0589 23.8035 29.0589L26.4543 33.0993C26.4543 33.0993 27.5872 31.8817 27.893 30.5195C28.2097 29.0999 28.2233 27.3936 26.6645 27.4701Z" fill="#263238"/>
<path d="M13.0201 26.8832L12.8972 24.6992L10.7678 26.2853C10.7678 26.2853 11.2947 27.41 12.3075 27.6503L13.0201 26.8832Z" fill="#B55B52"/>
<path d="M11.5731 22.9738L10.2026 24.4425L10.7677 26.2852L12.8971 24.6991L11.5731 22.9738Z" fill="#B55B52"/>
<path d="M38.7858 91.9746L36.307 92.2121L35.043 86.4354L37.5245 86.1979L38.7858 91.9746Z" fill="#B55B52"/>
<path d="M61.5757 84.4944L59.6593 86.1624L55.2749 82.3513L57.1914 80.6805L61.5757 84.4944Z" fill="#B55B52"/>
<path d="M58.6875 85.5782L60.402 83.2959C60.4302 83.2557 60.4721 83.2271 60.5198 83.2156C60.5675 83.204 60.6178 83.2102 60.6613 83.2331L62.6324 84.2896C62.6811 84.3183 62.7231 84.3572 62.7556 84.4035C62.7881 84.4498 62.8102 84.5026 62.8206 84.5582C62.8309 84.6138 62.8292 84.671 62.8156 84.726C62.802 84.7809 62.7767 84.8322 62.7416 84.8765C62.1301 85.6628 61.797 86.0122 61.0435 87.0169C60.5794 87.6338 59.6403 89.0671 59.0015 89.9189C58.3626 90.7706 57.4972 90.1919 57.6883 89.7905C58.5483 87.9505 58.5947 86.8722 58.5538 86.0068C58.5472 85.8527 58.5945 85.7011 58.6875 85.5782V85.5782Z" fill="#263238"/>
<path d="M35.9958 91.4641H38.977C39.0305 91.464 39.0825 91.4817 39.1249 91.5143C39.1674 91.5469 39.1979 91.5925 39.2117 91.6442L39.8615 94.0029C39.8772 94.0586 39.8797 94.1172 39.8688 94.1741C39.8579 94.2309 39.8338 94.2844 39.7986 94.3303C39.7633 94.3762 39.7178 94.4132 39.6657 94.4383C39.6135 94.4635 39.5563 94.4761 39.4984 94.4752C38.4555 94.4561 37.9477 94.3961 36.6346 94.3961C35.8293 94.3961 33.7435 94.4807 32.6297 94.4807C31.5159 94.4807 31.3111 93.3887 31.7643 93.2795C33.7845 92.8318 34.9502 92.2148 35.5863 91.6251C35.6981 91.5225 35.844 91.4651 35.9958 91.4641V91.4641Z" fill="#263238"/>
<path opacity="0.2" d="M35.0457 86.4354L35.6954 89.4138H38.2288L37.5245 86.1979L35.0457 86.4354Z" fill="black"/>
<path opacity="0.2" d="M57.1914 80.6832L55.2749 82.354L57.5353 84.3169L59.4518 82.6461L57.1914 80.6832Z" fill="black"/>
<path d="M24.9228 27.956C24.9228 27.956 23.8663 28.6822 29.8204 42.2476L39.7167 39.5176C38.5291 35.5618 37.8931 33.0939 37.7211 24.347C36.2605 24.4438 34.8089 24.6464 33.3776 24.953C31.8523 25.2603 30.3507 25.6754 28.8841 26.1952C26.9976 26.8913 24.9228 27.956 24.9228 27.956Z" fill="#263238"/>
<path d="M31.6604 20.039C31.7423 21.5542 32.1327 24.265 33.3885 24.953C33.3885 24.953 34.3795 29.5176 30.7567 34.1476C26.9347 30.7897 28.8949 26.1952 28.8949 26.1952C30.41 25.3762 30.0661 24.1886 29.4982 23.1512L31.6604 20.039Z" fill="#B55B52"/>
<path d="M33.3777 24.953C33.3777 24.953 34.3687 29.5176 30.746 34.1476C26.924 30.7897 28.8841 26.1952 28.8841 26.1952C28.8841 26.1952 29.4465 27.6066 30.5877 28.0898C31.3166 27.6666 32.788 26.3344 33.3777 24.953Z" fill="#F5F5F5"/>
<path d="M30.885 27.8877C30.885 27.8877 32.9216 27.1479 34.434 27.6939C34.5678 26.8749 34.7589 25.1496 34.1173 24.6909C33.8559 24.699 33.6025 24.7835 33.3884 24.9339L30.885 27.8877Z" fill="white"/>
<path d="M30.2955 27.9178C30.2955 27.9178 28.9605 27.6066 27.6392 28.9115C27.5437 28.0925 27.6065 26.7275 28.2671 26.2607C28.4983 26.1427 28.749 26.0678 29.0069 26.0396C29.3253 26.7351 29.7612 27.3705 30.2955 27.9178V27.9178Z" fill="white"/>
<path opacity="0.2" d="M31.4146 20.3721C31.6102 21.2375 31.6195 22.1345 31.4419 23.0038C31.3164 23.6044 30.6639 24.0439 29.9377 24.3005C29.8512 23.8916 29.7 23.499 29.49 23.1376L31.4146 20.3721Z" fill="black"/>
<path d="M27.3333 14.8957C25.1985 17.8278 27.3115 21.7207 29.1406 21.6388C30.5056 21.587 32.2828 19.8589 32.0617 18.3055C31.7314 15.9768 28.4062 13.4215 27.3333 14.8957Z" fill="#263238"/>
<path d="M33.7762 18.259C33.2684 20.716 33.1046 21.7616 31.6768 22.8782C29.5283 24.5571 26.64 23.4651 26.4079 20.9262C26.2004 18.6412 27.0686 15.0131 29.6211 14.3251C30.1764 14.1658 30.7637 14.154 31.3249 14.291C31.8862 14.428 32.402 14.7089 32.8215 15.1061C33.241 15.5033 33.5497 16.003 33.7172 16.5559C33.8846 17.1088 33.9049 17.6959 33.7762 18.259V18.259Z" fill="#B55B52"/>
<path d="M31.6604 14.4616C31.5594 15.1823 33.0254 17.208 34.6634 17.1916C35.4606 17.1916 35.7063 15.9686 34.9364 14.8629C33.9018 13.3997 31.8188 13.427 31.6604 14.4616Z" fill="url(#paint1_linear_0_1)"/>
<path d="M28.3054 14.9285C28.1279 16.1815 30.7624 19.493 33.577 19.4466C34.9584 19.4248 35.215 16.2771 34.194 15.095C32.2065 12.7827 28.5592 13.1376 28.3054 14.9285Z" fill="#263238"/>
<path d="M32.7769 18.7341C31.917 18.9088 32.4165 20.0718 32.938 20.6614C33.6041 20.2083 34.1365 18.4583 32.7769 18.7341Z" fill="#263238"/>
<path d="M30.5139 15.9659C28.4582 16.8204 26.4407 14.6364 25.8538 13.6699C27.3389 13.8829 30.4047 11.8572 31.6659 14.4207C32.5532 16.217 30.5139 15.9659 30.5139 15.9659Z" fill="#263238"/>
<path d="M30.0553 15.8157C28.6575 17.0333 26.4708 15.8758 25.7446 15.2697C26.9786 15.035 28.8623 12.6298 30.5522 14.2869C31.7397 15.4636 30.0553 15.8157 30.0553 15.8157Z" fill="#263238"/>
<path d="M34.374 20.1155C34.2532 20.5873 33.9536 20.9936 33.5386 21.2484C32.9926 21.5815 32.5503 21.1365 32.5694 20.5304C32.5858 19.9844 32.8943 19.1654 33.514 19.0672C33.6487 19.0491 33.7857 19.0658 33.912 19.1156C34.0384 19.1654 34.15 19.2467 34.2361 19.3517C34.3223 19.4567 34.3801 19.582 34.4043 19.7157C34.4284 19.8494 34.418 19.987 34.374 20.1155Z" fill="#B55B52"/>
<path d="M29.8204 42.2339C29.8204 42.2339 28.7967 62.0974 30.2163 69.5967C31.6932 77.399 34.4778 88.5484 34.4778 88.5484L39.1898 88.319C39.1898 88.319 37.4289 74.1749 37.0058 68.1443C36.4325 59.8342 37.0604 40.2274 37.0604 40.2274L29.8204 42.2339Z" fill="url(#paint2_linear_0_1)"/>
<path opacity="0.4" d="M29.8204 42.2339C29.8204 42.2339 28.7967 62.0974 30.2163 69.5967C31.6932 77.399 34.4778 88.5484 34.4778 88.5484L39.1898 88.319C39.1898 88.319 37.4289 74.1749 37.0058 68.1443C36.4325 59.8342 37.0604 40.2274 37.0604 40.2274L29.8204 42.2339Z" fill="black"/>
<path opacity="0.2" d="M36.8828 47.7021C36.1921 45.8621 35.5724 44.8493 35.4496 46.6811C35.1929 50.5577 35.769 54.9885 36.7736 57.1861C36.7818 53.891 36.8309 50.5468 36.8828 47.7021Z" fill="black"/>
<path d="M39.5202 88.5483L34.1503 88.8077L33.5142 86.8448L39.3345 86.3889L39.5202 88.5483Z" fill="url(#paint3_linear_0_1)"/>
<path d="M32.4331 41.5105C32.4331 41.5105 38.0924 57.7376 41.9526 66.6974C45.0703 73.9347 56.4735 84.0466 56.4735 84.0466L59.168 81.8107C59.168 81.8107 51.0217 70.2847 48.865 65.3761C41.9581 49.6622 44.0083 43.0065 39.7167 39.4957L32.4331 41.5105Z" fill="url(#paint4_linear_0_1)"/>
<path opacity="0.4" d="M32.4331 41.5105C32.4331 41.5105 38.0924 57.7376 41.9526 66.6974C45.0703 73.9347 56.4735 84.0466 56.4735 84.0466L59.168 81.8107C59.168 81.8107 51.0217 70.2847 48.865 65.3761C41.9581 49.6622 44.0083 43.0065 39.7167 39.4957L32.4331 41.5105Z" fill="black"/>
<path d="M59.3864 81.7862L56.3698 84.3961L54.8928 83.3068L58.4445 80.3365L59.3864 81.7862Z" fill="url(#paint5_linear_0_1)"/>
<path d="M39.7167 38.876L40.3883 39.635C40.4401 39.6923 40.3883 39.7851 40.2627 39.8152L29.8887 42.6871C29.8013 42.7117 29.7167 42.6871 29.6949 42.6353L29.3809 41.7808C29.3591 41.7207 29.4246 41.647 29.5229 41.6197L39.5447 38.8487C39.5733 38.8384 39.6041 38.8355 39.6342 38.8402C39.6643 38.845 39.6927 38.8573 39.7167 38.876V38.876Z" fill="url(#paint6_linear_0_1)"/>
<path d="M38.6574 40.3639L38.9304 40.2874C38.985 40.2874 39.0178 40.2356 39.0041 40.2028L38.5864 39.0944C38.5864 39.0617 38.5209 39.048 38.469 39.0617L38.196 39.1354C38.1442 39.1517 38.1087 39.19 38.1223 39.2227L38.54 40.3311C38.5482 40.3639 38.6028 40.3775 38.6574 40.3639Z" fill="url(#paint7_linear_0_1)"/>
<path opacity="0.4" d="M38.6574 40.3639L38.9304 40.2874C38.985 40.2874 39.0178 40.2356 39.0041 40.2028L38.5864 39.0944C38.5864 39.0617 38.5209 39.048 38.469 39.0617L38.196 39.1354C38.1442 39.1517 38.1087 39.19 38.1223 39.2227L38.54 40.3311C38.5482 40.3639 38.6028 40.3775 38.6574 40.3639Z" fill="black"/>
<path d="M30.664 42.5752L30.937 42.4987C30.9916 42.4851 31.0244 42.4469 31.0107 42.4141L30.593 41.3057C30.593 41.273 30.5275 41.2593 30.4756 41.273L30.2026 41.3467C30.1508 41.363 30.1153 41.4013 30.1289 41.434L30.5466 42.5424C30.5684 42.5752 30.6094 42.5888 30.664 42.5752Z" fill="url(#paint8_linear_0_1)"/>
<path opacity="0.4" d="M30.664 42.5752L30.937 42.4987C30.9916 42.4851 31.0244 42.4469 31.0107 42.4141L30.593 41.3057C30.593 41.273 30.5275 41.2593 30.4756 41.273L30.2026 41.3467C30.1508 41.363 30.1153 41.4013 30.1289 41.434L30.5466 42.5424C30.5684 42.5752 30.6094 42.5888 30.664 42.5752Z" fill="black"/>
<path d="M34.6635 41.4695L34.9365 41.3931C34.9911 41.3794 35.0239 41.3412 35.0102 41.3084L34.5925 40.2001C34.5925 40.1673 34.527 40.1537 34.4751 40.1673L34.2021 40.241C34.1503 40.2574 34.1148 40.2956 34.1284 40.3284L34.5461 41.4368C34.5516 41.4695 34.6062 41.4832 34.6635 41.4695Z" fill="url(#paint9_linear_0_1)"/>
<path opacity="0.4" d="M34.6635 41.4695L34.9365 41.3931C34.9911 41.3794 35.0239 41.3412 35.0102 41.3084L34.5925 40.2001C34.5925 40.1673 34.527 40.1537 34.4751 40.1673L34.2021 40.241C34.1503 40.2574 34.1148 40.2956 34.1284 40.3284L34.5461 41.4368C34.5516 41.4695 34.6062 41.4832 34.6635 41.4695Z" fill="black"/>
<path d="M29.9408 18.5042C29.9732 18.3032 29.8933 18.1232 29.7624 18.102C29.6314 18.0809 29.4989 18.2267 29.4664 18.4276C29.434 18.6285 29.5139 18.8086 29.6449 18.8297C29.7759 18.8509 29.9083 18.7051 29.9408 18.5042Z" fill="#263238"/>
<path d="M27.6692 18.2181C27.6419 18.4174 27.5109 18.5675 27.3798 18.5539C27.2488 18.5402 27.1669 18.3601 27.1942 18.158C27.2215 17.956 27.3553 17.8086 27.4863 17.825C27.6174 17.8414 27.6993 18.0161 27.6692 18.2181Z" fill="#263238"/>
<path d="M27.541 17.855L27.0796 17.6584C27.0796 17.6584 27.2734 18.0516 27.541 17.855Z" fill="#263238"/>
<path d="M28.2207 18.6358C27.9747 19.0734 27.6718 19.4764 27.3198 19.8343C27.4126 19.9198 27.5231 19.9839 27.6433 20.0222C27.7636 20.0604 27.8908 20.0717 28.016 20.0554L28.2207 18.6358Z" fill="#A02724"/>
<path d="M28.5837 20.9263C28.5734 20.9211 28.5652 20.9127 28.5602 20.9023C28.5553 20.8919 28.5539 20.8802 28.5564 20.869C28.5574 20.861 28.5599 20.8534 28.5639 20.8465C28.5679 20.8396 28.5732 20.8335 28.5796 20.8287C28.586 20.8239 28.5932 20.8204 28.6009 20.8184C28.6087 20.8164 28.6167 20.8159 28.6246 20.8171C28.8757 20.8517 29.1314 20.8275 29.3716 20.7465C29.6118 20.6655 29.8299 20.5299 30.0087 20.3503C30.02 20.3391 30.0352 20.3328 30.051 20.3328C30.0669 20.3328 30.0821 20.3391 30.0934 20.3503C30.0988 20.3556 30.1031 20.362 30.1061 20.369C30.109 20.376 30.1106 20.3836 30.1106 20.3912C30.1106 20.3988 30.109 20.4064 30.1061 20.4134C30.1031 20.4205 30.0988 20.4268 30.0934 20.4322C29.9023 20.6289 29.6674 20.7775 29.4078 20.8657C29.1482 20.954 28.8714 20.9794 28.6 20.9399C28.5931 20.9375 28.5873 20.9327 28.5837 20.9263Z" fill="#263238"/>
<path d="M30.8933 17.5574C30.8758 17.5482 30.8615 17.5339 30.8523 17.5165C30.7839 17.3847 30.6846 17.2714 30.5629 17.1863C30.4412 17.1012 30.3007 17.0468 30.1534 17.0278C30.1379 17.0271 30.1226 17.0233 30.1086 17.0166C30.0946 17.0098 30.0821 17.0002 30.0718 16.9885C30.0616 16.9767 30.0539 16.963 30.0492 16.9482C30.0444 16.9334 30.0427 16.9177 30.0442 16.9022C30.047 16.8706 30.0619 16.8413 30.0859 16.8204C30.1098 16.7996 30.1408 16.7888 30.1725 16.7903C30.3585 16.8116 30.5366 16.878 30.6911 16.9836C30.8457 17.0892 30.9723 17.2309 31.0598 17.3964C31.0724 17.4195 31.0771 17.446 31.0732 17.4721C31.0692 17.4981 31.0569 17.5221 31.0379 17.5404C31.019 17.5587 30.9946 17.5703 30.9685 17.5734C30.9423 17.5764 30.9159 17.5708 30.8933 17.5574V17.5574Z" fill="#263238"/>
<path d="M26.7463 17.036H26.7299C26.7076 17.0135 26.6951 16.9831 26.6951 16.9514C26.6951 16.9197 26.7076 16.8893 26.7299 16.8668C26.8519 16.7205 27.0067 16.6051 27.1818 16.5301C27.3569 16.4552 27.5473 16.4227 27.7373 16.4354C27.7527 16.4374 27.7675 16.4425 27.7809 16.4504C27.7943 16.4582 27.8059 16.4688 27.8151 16.4813C27.8243 16.4938 27.8308 16.508 27.8344 16.5231C27.8379 16.5382 27.8383 16.5539 27.8356 16.5692C27.8309 16.6009 27.8139 16.6294 27.7884 16.6488C27.7629 16.6682 27.7309 16.6768 27.6991 16.6729C27.5489 16.6648 27.399 16.6922 27.2614 16.7529C27.1238 16.8136 27.0025 16.9059 26.9074 17.0224C26.8867 17.0438 26.859 17.0569 26.8294 17.0594C26.7998 17.0619 26.7703 17.0536 26.7463 17.036V17.036Z" fill="#263238"/>
<path d="M38.5975 25.6765C39.0807 26.2416 39.6267 26.8476 40.17 27.41C40.7132 27.9724 41.262 28.5348 41.8516 29.0617C42.972 30.1148 44.202 31.0447 45.5208 31.8353C45.8348 32.0164 46.1583 32.1804 46.4899 32.3267C46.7624 32.4482 47.0512 32.5292 47.3471 32.567C48.0011 32.6343 48.6618 32.5531 49.28 32.3295C49.9778 32.0872 50.6427 31.7589 51.2592 31.3521C51.5759 31.1419 51.8953 30.9235 52.2038 30.6887C52.5123 30.454 52.8181 30.1946 53.0856 29.9571L54.0547 30.7761C53.7961 31.1302 53.5152 31.4676 53.2139 31.7862C52.9178 32.1054 52.6043 32.408 52.2748 32.6926C51.5957 33.2852 50.84 33.7838 50.028 34.1749C49.1399 34.6044 48.1611 34.8124 47.1751 34.781C46.6539 34.7614 46.1389 34.66 45.6491 34.4807C45.2222 34.3228 44.8047 34.1405 44.3987 33.9347C42.8639 33.1244 41.4368 32.1247 40.1509 30.959C39.512 30.3939 38.8896 29.8179 38.3054 29.2063C38.0133 28.9006 37.7239 28.5921 37.44 28.2754C37.156 27.9587 36.894 27.6475 36.5991 27.2926L38.5975 25.6765Z" fill="#B65B52"/>
<path d="M53.5003 31.2539L54.9309 30.1128L53.1127 28.8706C53.1127 28.8706 52.2718 29.9626 52.5203 30.9809L53.5003 31.2539Z" fill="#B55B52"/>
<path d="M56.0774 28.816L54.737 27.7376L53.1208 28.8706L54.939 30.1127L56.0774 28.816Z" fill="#B55B52"/>
<path d="M37.7209 24.3251C38.7884 24.3524 39.4354 25.4171 39.4354 25.4171L37.6254 29.7141C37.6254 29.7141 35.971 28.7013 36.0638 27.3117C36.1566 25.8785 36.5034 24.2978 37.7209 24.3251Z" fill="#263238"/>
<path d="M57.8875 86.7957C57.861 86.7772 57.8363 86.7562 57.8138 86.7329C57.7869 86.7092 57.7668 86.6788 57.7558 86.6446C57.7447 86.6105 57.7431 86.5741 57.751 86.5391C57.8248 86.2251 58.6792 85.8975 58.7775 85.862C58.7882 85.8581 58.7998 85.8574 58.8109 85.8598C58.822 85.8622 58.8322 85.8677 58.8403 85.8757C58.8461 85.8857 58.8491 85.897 58.8491 85.9085C58.8491 85.92 58.8461 85.9313 58.8403 85.9412C58.7038 86.2497 58.4281 86.7766 58.1141 86.8394C58.0358 86.855 57.9545 86.8393 57.8875 86.7957V86.7957ZM58.682 86.0286C58.3435 86.1678 57.9067 86.3999 57.863 86.5746C57.8592 86.5901 57.86 86.6063 57.8654 86.6214C57.8707 86.6364 57.8803 86.6496 57.893 86.6592C57.9176 86.6886 57.9494 86.7111 57.9853 86.7245C58.0212 86.7379 58.0599 86.7417 58.0977 86.7356C58.2725 86.6892 58.4854 86.4326 58.6874 86.0286H58.682Z" fill="url(#paint10_linear_0_1)"/>
<path d="M57.7209 85.9685C57.701 85.9562 57.6827 85.9415 57.6663 85.9249C57.6338 85.8868 57.616 85.8384 57.616 85.7884C57.616 85.7383 57.6338 85.6899 57.6663 85.6519C57.6898 85.6121 57.7214 85.5777 57.759 85.5509C57.7966 85.5241 57.8395 85.5055 57.8847 85.4962C58.2423 85.4171 58.8184 85.8402 58.843 85.8593C58.8515 85.8655 58.8582 85.8738 58.8625 85.8834C58.8668 85.8929 58.8686 85.9035 58.8675 85.9139C58.8664 85.9246 58.8622 85.9346 58.8554 85.9429C58.8486 85.9511 58.8395 85.9572 58.8293 85.9603C58.5863 86.0777 57.9666 86.1269 57.7209 85.9685ZM58.6491 85.8894C58.4328 85.7216 58.1692 85.6261 57.8956 85.6164C57.8668 85.6211 57.8395 85.6324 57.8158 85.6494C57.7921 85.6665 57.7727 85.6888 57.7591 85.7147C57.7209 85.7802 57.7373 85.8129 57.7591 85.8348C57.8738 85.9631 58.3707 85.974 58.6682 85.8921L58.6491 85.8894Z" fill="url(#paint11_linear_0_1)"/>
<path d="M34.6634 91.9554C34.4589 91.97 34.255 91.9214 34.0791 91.8162C34.0338 91.7831 33.9967 91.7401 33.9706 91.6904C33.9446 91.6407 33.9303 91.5857 33.929 91.5296C33.9252 91.4985 33.9301 91.467 33.9431 91.4386C33.9561 91.4102 33.9767 91.3859 34.0027 91.3685C34.2757 91.1829 35.2885 91.6415 35.4905 91.7398C35.5018 91.7442 35.5115 91.7518 35.5183 91.7618C35.5252 91.7718 35.5288 91.7836 35.5288 91.7957C35.5288 91.8078 35.5252 91.8196 35.5183 91.8296C35.5115 91.8396 35.5018 91.8473 35.4905 91.8517C35.2193 91.9159 34.942 91.9507 34.6634 91.9554V91.9554ZM34.1883 91.4395C34.1473 91.4361 34.1062 91.4456 34.0709 91.4668C34.062 91.4725 34.0549 91.4807 34.0505 91.4904C34.0461 91.5001 34.0447 91.5109 34.0464 91.5214C34.0477 91.5605 34.058 91.5988 34.0765 91.6334C34.0949 91.6679 34.1211 91.6978 34.1528 91.7207C34.3276 91.8517 34.7398 91.8708 35.2721 91.7725C34.9338 91.607 34.5719 91.4946 34.1993 91.4395H34.1883Z" fill="url(#paint12_linear_0_1)"/>
<path d="M35.4825 91.8517H35.4579C35.1221 91.7125 34.4423 91.1692 34.4806 90.888C34.4806 90.8252 34.5324 90.7488 34.6853 90.7297C35.275 90.6587 35.5289 91.737 35.5398 91.7834C35.5423 91.7938 35.5418 91.8047 35.5384 91.8148C35.535 91.825 35.5289 91.834 35.5207 91.8408C35.5153 91.845 35.5092 91.8482 35.5027 91.85C35.4961 91.8519 35.4892 91.8525 35.4825 91.8517V91.8517ZM34.7399 90.8443H34.699C34.6362 90.8443 34.6034 90.8689 34.6007 90.8989C34.5788 91.0627 35.0457 91.4913 35.3896 91.6797C35.305 91.4231 35.0921 90.8443 34.7344 90.8443H34.7399Z" fill="url(#paint13_linear_0_1)"/>
<path d="M29.8095 18.128L29.3481 17.9287C29.3481 17.9287 29.542 18.33 29.8095 18.128Z" fill="#263238"/>
<path d="M50.107 94.6335H81.5239C83.7282 94.6335 85.5151 92.8466 85.5151 90.6423L85.5151 15.4171C85.5151 13.2128 83.7282 11.4259 81.5239 11.4259H50.107C47.9027 11.4259 46.1158 13.2128 46.1158 15.4171L46.1158 90.6423C46.1158 92.8466 47.9027 94.6335 50.107 94.6335Z" fill="url(#paint14_linear_0_1)"/>
<path d="M46.3641 36.621H46.8992C47.3123 36.621 47.6472 36.2861 47.6472 35.873V26.1979C47.6472 25.7848 47.3123 25.4499 46.8992 25.4499H46.3641C45.951 25.4499 45.6161 25.7848 45.6161 26.1979V35.873C45.6161 36.2861 45.951 36.621 46.3641 36.621Z" fill="url(#paint15_linear_0_1)"/>
<path d="M85.5971 30.9044H86.2141C86.6046 30.9044 86.9211 30.5879 86.9211 30.1973V26.1569C86.9211 25.7664 86.6046 25.4499 86.2141 25.4499H85.5971C85.2066 25.4499 84.89 25.7664 84.89 26.1569V30.1973C84.89 30.5879 85.2066 30.9044 85.5971 30.9044Z" fill="url(#paint16_linear_0_1)"/>
<path d="M85.5971 38.1143H86.2141C86.6046 38.1143 86.9211 37.7977 86.9211 37.4072V33.3668C86.9211 32.9763 86.6046 32.6598 86.2141 32.6598H85.5971C85.2066 32.6598 84.89 32.9763 84.89 33.3668V37.4072C84.89 37.7977 85.2066 38.1143 85.5971 38.1143Z" fill="url(#paint17_linear_0_1)"/>
<path d="M50.9369 94.6335H82.3537C84.558 94.6335 86.345 92.8466 86.345 90.6423L86.345 15.4171C86.345 13.2128 84.558 11.4259 82.3537 11.4259H50.9369C48.7326 11.4259 46.9456 13.2128 46.9456 15.4171L46.9456 90.6423C46.9456 92.8466 48.7326 94.6335 50.9369 94.6335Z" fill="url(#paint18_linear_0_1)"/>
<path opacity="0.6" d="M50.9369 94.6335H82.3537C84.558 94.6335 86.345 92.8466 86.345 90.6423L86.345 15.4171C86.345 13.2128 84.558 11.4259 82.3537 11.4259H50.9369C48.7326 11.4259 46.9456 13.2128 46.9456 15.4171L46.9456 90.6423C46.9456 92.8466 48.7326 94.6335 50.9369 94.6335Z" fill="#E1EDF8"/>
<path opacity="0.3" d="M66.6428 91.8052C67.8837 91.8052 68.8896 90.7993 68.8896 89.5584C68.8896 88.3176 67.8837 87.3116 66.6428 87.3116C65.4019 87.3116 64.396 88.3176 64.396 89.5584C64.396 90.7993 65.4019 91.8052 66.6428 91.8052Z" fill="url(#paint19_linear_0_1)"/>
<path d="M47.8957 85.6573H85.395L85.395 17.7813H47.8957L47.8957 85.6573Z" fill="#E1EDF8"/>
<path d="M72.3047 30.0826H60.9834C60.3471 30.0826 59.8313 30.5984 59.8313 31.2347V42.556C59.8313 43.1923 60.3471 43.7081 60.9834 43.7081H72.3047C72.9409 43.7081 73.4567 43.1923 73.4567 42.556V31.2347C73.4567 30.5984 72.9409 30.0826 72.3047 30.0826Z" fill="url(#paint20_linear_0_1)"/>
<path d="M62.3157 30.0826H62.0427V34.9966H62.3157V30.0826Z" fill="#E1EDF8"/>
<path d="M62.179 35.8266C62.0834 35.8266 61.99 35.7983 61.9106 35.7452C61.8311 35.6921 61.7692 35.6166 61.7326 35.5283C61.696 35.44 61.6864 35.3428 61.7051 35.2491C61.7237 35.1554 61.7698 35.0693 61.8373 35.0017C61.9049 34.9341 61.991 34.8881 62.0847 34.8695C62.1785 34.8508 62.2756 34.8604 62.3639 34.897C62.4522 34.9335 62.5277 34.9955 62.5808 35.0749C62.6339 35.1544 62.6622 35.2478 62.6622 35.3434C62.6615 35.4713 62.6104 35.5938 62.5199 35.6843C62.4294 35.7747 62.3069 35.8259 62.179 35.8266ZM62.179 35.1332C62.1374 35.1332 62.0968 35.1455 62.0622 35.1686C62.0277 35.1917 62.0007 35.2245 61.9848 35.2629C61.9689 35.3013 61.9647 35.3436 61.9728 35.3844C61.9809 35.4252 62.001 35.4626 62.0304 35.492C62.0598 35.5214 62.0972 35.5414 62.138 35.5495C62.1788 35.5577 62.221 35.5535 62.2595 35.5376C62.2979 35.5217 62.3307 35.4947 62.3538 35.4602C62.3769 35.4256 62.3892 35.385 62.3892 35.3434C62.3892 35.2876 62.3671 35.2342 62.3277 35.1947C62.2882 35.1553 62.2348 35.1332 62.179 35.1332Z" fill="#E1EDF8"/>
<path d="M63.6261 39.6376C63.5298 39.6382 63.4355 39.6101 63.3551 39.5569C63.2748 39.5037 63.2121 39.4278 63.175 39.3389C63.1378 39.25 63.128 39.1521 63.1467 39.0576C63.1653 38.9631 63.2117 38.8762 63.2798 38.8081C63.3479 38.74 63.4347 38.6936 63.5293 38.675C63.6238 38.6563 63.7217 38.6662 63.8106 38.7033C63.8995 38.7404 63.9754 38.8031 64.0286 38.8834C64.0818 38.9638 64.1099 39.0581 64.1093 39.1544C64.1093 39.2826 64.0584 39.4055 63.9678 39.4961C63.8772 39.5867 63.7543 39.6376 63.6261 39.6376V39.6376ZM63.6261 38.9415C63.5839 38.941 63.5425 38.953 63.5071 38.976C63.4717 38.9991 63.444 39.0322 63.4274 39.071C63.4109 39.1099 63.4063 39.1528 63.4142 39.1943C63.4221 39.2358 63.4422 39.274 63.4718 39.304C63.5015 39.3341 63.5394 39.3546 63.5808 39.3631C63.6222 39.3715 63.6652 39.3674 63.7042 39.3514C63.7433 39.3354 63.7767 39.3081 63.8002 39.273C63.8238 39.2379 63.8363 39.1967 63.8363 39.1544C63.8367 39.1266 63.8315 39.099 63.8211 39.0732C63.8107 39.0473 63.7953 39.0238 63.7757 39.004C63.7562 38.9842 63.7329 38.9685 63.7072 38.9578C63.6815 38.947 63.654 38.9415 63.6261 38.9415V38.9415Z" fill="#E1EDF8"/>
<path d="M69.6075 42.7635C69.5119 42.7635 69.4185 42.7352 69.339 42.6821C69.2596 42.629 69.1976 42.5535 69.1611 42.4652C69.1245 42.377 69.1149 42.2798 69.1336 42.1861C69.1522 42.0923 69.1982 42.0062 69.2658 41.9386C69.3334 41.8711 69.4195 41.825 69.5132 41.8064C69.6069 41.7878 69.7041 41.7973 69.7924 41.8339C69.8807 41.8705 69.9562 41.9324 70.0093 42.0119C70.0624 42.0913 70.0907 42.1848 70.0907 42.2803C70.0907 42.4085 70.0398 42.5314 69.9492 42.622C69.8585 42.7126 69.7356 42.7635 69.6075 42.7635ZM69.6075 42.0701C69.5799 42.0701 69.5525 42.0756 69.527 42.0861C69.5015 42.0967 69.4784 42.1122 69.4588 42.1317C69.4393 42.1512 69.4238 42.1744 69.4133 42.1999C69.4027 42.2254 69.3973 42.2527 69.3973 42.2803C69.3973 42.3079 69.4027 42.3353 69.4133 42.3608C69.4238 42.3863 69.4393 42.4094 69.4588 42.429C69.4784 42.4485 69.5015 42.464 69.527 42.4745C69.5525 42.4851 69.5799 42.4905 69.6075 42.4905C69.6632 42.4905 69.7167 42.4684 69.7561 42.429C69.7955 42.3895 69.8177 42.3361 69.8177 42.2803C69.8177 42.2246 69.7955 42.1711 69.7561 42.1317C69.7167 42.0923 69.6632 42.0701 69.6075 42.0701V42.0701Z" fill="#E1EDF8"/>
<path d="M65.1221 36.8258C65.0266 36.8258 64.9331 36.7975 64.8537 36.7444C64.7742 36.6913 64.7123 36.6158 64.6757 36.5275C64.6391 36.4392 64.6296 36.3421 64.6482 36.2483C64.6668 36.1546 64.7129 36.0685 64.7804 36.0009C64.848 35.9333 64.9341 35.8873 65.0279 35.8687C65.1216 35.85 65.2187 35.8596 65.307 35.8962C65.3953 35.9327 65.4708 35.9947 65.5239 36.0741C65.577 36.1536 65.6053 36.247 65.6053 36.3426C65.6053 36.406 65.5928 36.4689 65.5686 36.5275C65.5443 36.5861 65.5087 36.6394 65.4638 36.6843C65.4189 36.7291 65.3657 36.7647 65.307 36.789C65.2484 36.8133 65.1856 36.8258 65.1221 36.8258ZM65.1221 36.1324C65.0664 36.1324 65.0129 36.1545 64.9735 36.1939C64.9341 36.2334 64.9119 36.2868 64.9119 36.3426C64.9119 36.3983 64.9341 36.4518 64.9735 36.4912C65.0129 36.5306 65.0664 36.5528 65.1221 36.5528C65.1779 36.5528 65.2313 36.5306 65.2708 36.4912C65.3102 36.4518 65.3323 36.3983 65.3323 36.3426C65.3323 36.2868 65.3102 36.2334 65.2708 36.1939C65.2313 36.1545 65.1779 36.1324 65.1221 36.1324Z" fill="#E1EDF8"/>
<path d="M62.2664 43.7081H61.9934V37.4373L63.4895 35.9412V30.0826H63.7625V36.0532L62.2664 37.5492V43.7081Z" fill="#E1EDF8"/>
<path d="M65.2586 43.7081H64.9856V39.4438L66.4816 37.9478V30.0826H66.7546V38.0597L65.2586 39.5557V43.7081Z" fill="#E1EDF8"/>
<path d="M69.7466 41.9336H69.4736V36.5391L67.9775 35.0431V30.0826H68.2505V34.9284L69.7466 36.4244V41.9336Z" fill="#E1EDF8"/>
<path d="M71.1063 38.1171C71.0107 38.1171 70.9173 38.0887 70.8378 38.0356C70.7583 37.9825 70.6964 37.9071 70.6598 37.8188C70.6233 37.7305 70.6137 37.6333 70.6323 37.5396C70.651 37.4458 70.697 37.3597 70.7646 37.2922C70.8322 37.2246 70.9183 37.1786 71.012 37.1599C71.1057 37.1413 71.2029 37.1508 71.2912 37.1874C71.3795 37.224 71.4549 37.2859 71.508 37.3654C71.5611 37.4449 71.5895 37.5383 71.5895 37.6338C71.5895 37.762 71.5386 37.8849 71.4479 37.9755C71.3573 38.0661 71.2344 38.1171 71.1063 38.1171ZM71.1063 37.4236C71.0505 37.4236 70.997 37.4458 70.9576 37.4852C70.9182 37.5246 70.896 37.5781 70.896 37.6338C70.896 37.6896 70.9182 37.7431 70.9576 37.7825C70.997 37.8219 71.0505 37.8441 71.1063 37.8441C71.162 37.8441 71.2155 37.8219 71.2549 37.7825C71.2943 37.7431 71.3165 37.6896 71.3165 37.6338C71.3165 37.5781 71.2943 37.5246 71.2549 37.4852C71.2155 37.4458 71.162 37.4236 71.1063 37.4236Z" fill="#E1EDF8"/>
<path d="M71.2427 37.2871H70.9697V36.5391L69.4736 35.0431V30.0826H69.7466V34.9284L71.2427 36.4244V37.2871Z" fill="#E1EDF8"/>
<path d="M65.2586 30.0826H64.9856V35.9958H65.2586V30.0826Z" fill="#E1EDF8"/>
<path d="M63.7625 39.5012H63.4895V43.7108H63.7625V39.5012Z" fill="#E1EDF8"/>
<path d="M66.6182 40.8853C66.5226 40.8853 66.4292 40.857 66.3498 40.8039C66.2703 40.7508 66.2084 40.6753 66.1718 40.587C66.1352 40.4987 66.1256 40.4016 66.1443 40.3078C66.1629 40.2141 66.209 40.128 66.2765 40.0604C66.3441 39.9928 66.4302 39.9468 66.524 39.9282C66.6177 39.9095 66.7148 39.9191 66.8031 39.9557C66.8914 39.9922 66.9669 40.0542 67.02 40.1336C67.0731 40.2131 67.1014 40.3065 67.1014 40.4021C67.1014 40.5303 67.0505 40.6532 66.9599 40.7438C66.8693 40.8344 66.7464 40.8853 66.6182 40.8853V40.8853ZM66.6182 40.1919C66.5625 40.1919 66.509 40.214 66.4696 40.2535C66.4302 40.2929 66.408 40.3463 66.408 40.4021C66.408 40.4578 66.4302 40.5113 66.4696 40.5507C66.509 40.5902 66.5625 40.6123 66.6182 40.6123C66.674 40.6123 66.7274 40.5902 66.7669 40.5507C66.8063 40.5113 66.8284 40.4578 66.8284 40.4021C66.8284 40.3463 66.8063 40.2929 66.7669 40.2535C66.7274 40.214 66.674 40.1919 66.6182 40.1919V40.1919Z" fill="#E1EDF8"/>
<path d="M66.7547 40.7488H66.4817V43.7081H66.7547V40.7488Z" fill="#E1EDF8"/>
<path d="M71.1063 39.7933C71.0107 39.7933 70.9173 39.7649 70.8378 39.7118C70.7583 39.6587 70.6964 39.5833 70.6598 39.495C70.6233 39.4067 70.6137 39.3095 70.6323 39.2158C70.651 39.1221 70.697 39.036 70.7646 38.9684C70.8322 38.9008 70.9183 38.8548 71.012 38.8361C71.1057 38.8175 71.2029 38.8271 71.2912 38.8636C71.3795 38.9002 71.4549 38.9621 71.508 39.0416C71.5611 39.1211 71.5895 39.2145 71.5895 39.3101C71.5895 39.4382 71.5386 39.5611 71.4479 39.6517C71.3573 39.7424 71.2344 39.7933 71.1063 39.7933ZM71.1063 39.0998C71.0505 39.0998 70.997 39.122 70.9576 39.1614C70.9182 39.2008 70.896 39.2543 70.896 39.3101C70.896 39.3658 70.9182 39.4193 70.9576 39.4587C70.997 39.4981 71.0505 39.5203 71.1063 39.5203C71.162 39.5203 71.2155 39.4981 71.2549 39.4587C71.2943 39.4193 71.3165 39.3658 71.3165 39.3101C71.3165 39.2543 71.2943 39.2008 71.2549 39.1614C71.2155 39.122 71.162 39.0998 71.1063 39.0998Z" fill="#E1EDF8"/>
<path d="M71.2427 39.6568H70.9697V43.7081H71.2427V39.6568Z" fill="#E1EDF8"/>
<path d="M69.7167 34.2322L69.5256 34.0384L70.9698 32.5915V30.0826H71.2428V32.7062L69.7167 34.2322Z" fill="#E1EDF8"/>
<path d="M68.114 38.2618C68.0182 38.2618 67.9246 38.2333 67.845 38.1799C67.7654 38.1266 67.7035 38.0508 67.6671 37.9622C67.6307 37.8736 67.6215 37.7761 67.6406 37.6823C67.6596 37.5884 67.7062 37.5023 67.7743 37.4349C67.8425 37.3676 67.9291 37.322 68.0232 37.304C68.1172 37.286 68.2146 37.2963 68.3028 37.3337C68.391 37.3711 68.466 37.4339 68.5185 37.5141C68.5709 37.5943 68.5983 37.6882 68.5972 37.784C68.5958 37.9112 68.5443 38.0327 68.4538 38.1222C68.3633 38.2116 68.2413 38.2618 68.114 38.2618V38.2618ZM68.114 37.5684C68.0583 37.5684 68.0048 37.5905 67.9654 37.6299C67.926 37.6693 67.9038 37.7228 67.9038 37.7786C67.9038 37.8343 67.926 37.8878 67.9654 37.9272C68.0048 37.9666 68.0583 37.9888 68.114 37.9888C68.1698 37.9888 68.2233 37.9666 68.2627 37.9272C68.3021 37.8878 68.3242 37.8343 68.3242 37.7786C68.3242 37.7228 68.3021 37.6693 68.2627 37.6299C68.2233 37.5905 68.1698 37.5684 68.114 37.5684V37.5684Z" fill="#E1EDF8"/>
<path d="M68.2505 38.1252H67.9775V43.7081H68.2505V38.1252Z" fill="#E1EDF8"/>
<path d="M79.1378 63.8992H54.1501V59.1353H79.1378V63.8992ZM54.4231 63.6262H78.8648V59.4083H54.4231V63.6262Z" fill="url(#paint21_linear_0_1)"/>
<path d="M56.4489 60.0717H54.9692V62.9628H56.4489V60.0717Z" fill="url(#paint22_linear_0_1)"/>
<path d="M58.3844 60.0717H56.9048V62.9628H58.3844V60.0717Z" fill="url(#paint23_linear_0_1)"/>
<path d="M60.3173 60.0717H58.8376V62.9628H60.3173V60.0717Z" fill="url(#paint24_linear_0_1)"/>
<path opacity="0.9" d="M62.2528 60.0717H60.7732V62.9628H62.2528V60.0717Z" fill="url(#paint25_linear_0_1)"/>
<path opacity="0.7" d="M64.1884 60.0717H62.7087V62.9628H64.1884V60.0717Z" fill="url(#paint26_linear_0_1)"/>
<path opacity="0.5" d="M66.1213 60.0717H64.6416V62.9628H66.1213V60.0717Z" fill="url(#paint27_linear_0_1)"/>
<path opacity="0.3" d="M68.0568 60.0717H66.5771V62.9628H68.0568V60.0717Z" fill="url(#paint28_linear_0_1)"/>
<path d="M58.5974 53.4788H59.3209V55.256H60.4511V55.832H58.5974V53.4788Z" fill="url(#paint29_linear_0_1)"/>
<path d="M60.6339 54.6527C60.6184 54.4895 60.639 54.3249 60.6944 54.1706C60.7497 54.0164 60.8385 53.8762 60.9543 53.7602C61.07 53.6441 61.21 53.5551 61.3641 53.4994C61.5183 53.4436 61.6829 53.4226 61.8461 53.4378C62.0098 53.4274 62.174 53.45 62.3288 53.5044C62.4836 53.5588 62.6258 53.6439 62.747 53.7545C62.8567 53.8718 62.9414 54.0103 62.9958 54.1614C63.0503 54.3126 63.0734 54.4732 63.0636 54.6336C63.0728 54.8663 63.025 55.0978 62.9244 55.3079C62.8353 55.4811 62.6965 55.6237 62.5258 55.7174C62.3246 55.8218 62.0999 55.8726 61.8734 55.8648C61.6481 55.8724 61.424 55.8285 61.2182 55.7365C61.0397 55.6499 60.8921 55.5108 60.795 55.3379C60.6812 55.1279 60.6256 54.8914 60.6339 54.6527V54.6527ZM61.3574 54.6527C61.3421 54.8332 61.3893 55.0134 61.4912 55.1632C61.5376 55.2121 61.5935 55.2511 61.6554 55.2777C61.7174 55.3043 61.7841 55.318 61.8515 55.318C61.9189 55.318 61.9857 55.3043 62.0476 55.2777C62.1096 55.2511 62.1655 55.2121 62.2119 55.1632C62.3141 55.0005 62.3592 54.8084 62.3402 54.6172C62.3536 54.4446 62.3063 54.2727 62.2064 54.1313C62.1609 54.0806 62.1048 54.0406 62.042 54.0141C61.9792 53.9877 61.9114 53.9755 61.8433 53.9784C61.7766 53.9757 61.7102 53.9883 61.6492 54.0153C61.5881 54.0423 61.5341 54.0829 61.4912 54.134C61.3875 54.287 61.3402 54.4714 61.3574 54.6554V54.6527Z" fill="url(#paint30_linear_0_1)"/>
<path d="M64.7836 55.4362H63.9646L63.8499 55.8238H63.1101L63.9919 53.4788H64.7809L65.6627 55.8238H64.9037L64.7836 55.4362ZM64.6334 54.9311L64.3741 54.0876L64.1175 54.9311H64.6334Z" fill="url(#paint31_linear_0_1)"/>
<path d="M65.9001 53.4788H66.9758C67.1519 53.4726 67.3274 53.5023 67.4917 53.5661C67.6183 53.6205 67.7291 53.706 67.8139 53.8146C67.9018 53.9245 67.9651 54.052 67.9995 54.1886C68.0384 54.3374 68.0576 54.4907 68.0568 54.6445C68.0656 54.8419 68.0368 55.0392 67.9722 55.226C67.9198 55.3577 67.8386 55.4762 67.7347 55.5727C67.6428 55.6616 67.5302 55.7263 67.4071 55.761C67.2665 55.7999 67.1216 55.821 66.9758 55.8238H65.9001V53.4788ZM66.6236 54.0111V55.2915H66.801C66.9119 55.2994 67.023 55.2816 67.1259 55.2396C67.1952 55.2011 67.2484 55.1391 67.2761 55.0649C67.3192 54.9338 67.3377 54.7959 67.3307 54.6581C67.3494 54.4789 67.3061 54.2987 67.2078 54.1476C67.1548 54.0971 67.0915 54.0588 67.0222 54.0352C66.9529 54.0117 66.8793 54.0034 66.8065 54.0111H66.6236Z" fill="url(#paint32_linear_0_1)"/>
<path d="M68.4663 53.4788H69.1925V55.8238H68.4663V53.4788Z" fill="url(#paint33_linear_0_1)"/>
<path d="M69.7195 53.4788H70.3938L71.2783 54.7755V53.4788H71.9608V55.8238H71.2783L70.3992 54.5353V55.8238H69.7195V53.4788Z" fill="url(#paint34_linear_0_1)"/>
<path d="M73.6205 54.983V54.4943H74.7398V55.4935C74.5654 55.6195 74.3743 55.7206 74.1719 55.7938C73.9814 55.8498 73.7835 55.8765 73.585 55.873C73.3502 55.8817 73.1169 55.8329 72.9052 55.731C72.7289 55.6344 72.5869 55.4857 72.4984 55.3052C72.3982 55.1055 72.3485 54.8842 72.3538 54.6609C72.3475 54.428 72.4021 54.1974 72.5121 53.992C72.6167 53.8033 72.7782 53.6524 72.9735 53.5607C73.1764 53.4761 73.3954 53.437 73.615 53.446C73.8114 53.438 74.0078 53.462 74.1965 53.517C74.3213 53.56 74.4325 53.6354 74.5186 53.7354C74.609 53.8456 74.6742 53.9742 74.7097 54.1122L74.0109 54.235C73.9854 54.1532 73.9336 54.0822 73.8634 54.033C73.7822 53.9811 73.6867 53.9562 73.5904 53.962C73.5183 53.9589 73.4463 53.9722 73.3801 54.0011C73.3139 54.03 73.2551 54.0735 73.2082 54.1285C73.1024 54.2818 73.0532 54.4671 73.069 54.6527C73.0502 54.8458 73.1005 55.0392 73.211 55.1987C73.2611 55.2539 73.3229 55.2972 73.3918 55.3255C73.4607 55.3538 73.5351 55.3665 73.6096 55.3625C73.6882 55.3619 73.7664 55.3499 73.8416 55.327C73.9299 55.2952 74.0149 55.2549 74.0955 55.2069V54.983H73.6205Z" fill="url(#paint35_linear_0_1)"/>
<path d="M67.0275 69.3019H66.2085V74.2896H67.0275V69.3019Z" fill="url(#paint36_linear_0_1)"/>
<path d="M68.6274 72.6597L68.2671 72.3267L66.6182 74.1012L64.9692 72.3267L64.6089 72.6597L66.6182 74.8219L68.6274 72.6597Z" fill="url(#paint37_linear_0_1)"/>
<path d="M69.9569 75.5645H63.2766V76.3835H69.9569V75.5645Z" fill="url(#paint38_linear_0_1)"/>
<path opacity="0.3" d="M71.9225 14.9612C71.9231 14.8146 71.8801 14.6712 71.799 14.5491C71.7179 14.427 71.6024 14.3318 71.4671 14.2755C71.3318 14.2191 71.1828 14.2043 71.039 14.2327C70.8953 14.2612 70.7632 14.3317 70.6596 14.4353C70.5559 14.539 70.4854 14.671 70.457 14.8148C70.4285 14.9586 70.4434 15.1075 70.4997 15.2428C70.556 15.3781 70.6513 15.4937 70.7734 15.5747C70.8955 15.6558 71.0389 15.6988 71.1854 15.6983C71.3809 15.6983 71.5684 15.6206 71.7066 15.4824C71.8449 15.3442 71.9225 15.1567 71.9225 14.9612V14.9612Z" fill="url(#paint39_linear_0_1)"/>
<path opacity="0.3" d="M68.6356 14.2214H62.4986C62.0915 14.2214 61.7615 14.5514 61.7615 14.9585V14.9612C61.7615 15.3683 62.0915 15.6983 62.4986 15.6983H68.6356C69.0427 15.6983 69.3727 15.3683 69.3727 14.9612V14.9585C69.3727 14.5514 69.0427 14.2214 68.6356 14.2214Z" fill="url(#paint40_linear_0_1)"/>
<defs>
<linearGradient id="paint0_linear_0_1" x1="49.6342" y1="0.059082" x2="49.6342" y2="73.9889" gradientUnits="userSpaceOnUse">
<stop stop-color="#44CACB"/>
<stop offset="1" stop-color="#16629C"/>
</linearGradient>
<linearGradient id="paint1_linear_0_1" x1="33.5295" y1="13.7203" x2="33.5295" y2="17.1917" gradientUnits="userSpaceOnUse">
<stop stop-color="#44CACB"/>
<stop offset="1" stop-color="#16629C"/>
</linearGradient>
<linearGradient id="paint2_linear_0_1" x1="34.3266" y1="40.2274" x2="34.3266" y2="88.5484" gradientUnits="userSpaceOnUse">
<stop stop-color="#44CACB"/>
<stop offset="1" stop-color="#16629C"/>
</linearGradient>
<linearGradient id="paint3_linear_0_1" x1="36.5172" y1="86.3889" x2="36.5172" y2="88.8077" gradientUnits="userSpaceOnUse">
<stop stop-color="#44CACB"/>
<stop offset="1" stop-color="#16629C"/>
</linearGradient>
<linearGradient id="paint4_linear_0_1" x1="45.8006" y1="39.4957" x2="45.8006" y2="84.0466" gradientUnits="userSpaceOnUse">
<stop stop-color="#44CACB"/>
<stop offset="1" stop-color="#16629C"/>
</linearGradient>
<linearGradient id="paint5_linear_0_1" x1="57.1396" y1="80.3365" x2="57.1396" y2="84.3961" gradientUnits="userSpaceOnUse">
<stop stop-color="#44CACB"/>
<stop offset="1" stop-color="#16629C"/>
</linearGradient>
<linearGradient id="paint6_linear_0_1" x1="34.8925" y1="38.838" x2="34.8925" y2="42.6967" gradientUnits="userSpaceOnUse">
<stop stop-color="#44CACB"/>
<stop offset="1" stop-color="#16629C"/>
</linearGradient>
<linearGradient id="paint7_linear_0_1" x1="38.5633" y1="39.0564" x2="38.5633" y2="40.3691" gradientUnits="userSpaceOnUse">
<stop stop-color="#44CACB"/>
<stop offset="1" stop-color="#16629C"/>
</linearGradient>
<linearGradient id="paint8_linear_0_1" x1="30.5699" y1="41.2677" x2="30.5699" y2="42.5804" gradientUnits="userSpaceOnUse">
<stop stop-color="#44CACB"/>
<stop offset="1" stop-color="#16629C"/>
</linearGradient>
<linearGradient id="paint9_linear_0_1" x1="34.5694" y1="40.162" x2="34.5694" y2="41.4748" gradientUnits="userSpaceOnUse">
<stop stop-color="#44CACB"/>
<stop offset="1" stop-color="#16629C"/>
</linearGradient>
<linearGradient id="paint10_linear_0_1" x1="58.2976" y1="85.8584" x2="58.2976" y2="86.8453" gradientUnits="userSpaceOnUse">
<stop stop-color="#44CACB"/>
<stop offset="1" stop-color="#16629C"/>
</linearGradient>
<linearGradient id="paint11_linear_0_1" x1="58.2419" y1="85.4864" x2="58.2419" y2="86.0689" gradientUnits="userSpaceOnUse">
<stop stop-color="#44CACB"/>
<stop offset="1" stop-color="#16629C"/>
</linearGradient>
<linearGradient id="paint12_linear_0_1" x1="34.7283" y1="91.3247" x2="34.7283" y2="91.958" gradientUnits="userSpaceOnUse">
<stop stop-color="#44CACB"/>
<stop offset="1" stop-color="#16629C"/>
</linearGradient>
<linearGradient id="paint13_linear_0_1" x1="35.0102" y1="90.7263" x2="35.0102" y2="91.852" gradientUnits="userSpaceOnUse">
<stop stop-color="#44CACB"/>
<stop offset="1" stop-color="#16629C"/>
</linearGradient>
<linearGradient id="paint14_linear_0_1" x1="65.8155" y1="94.6335" x2="65.8155" y2="11.4259" gradientUnits="userSpaceOnUse">
<stop stop-color="#44CACB"/>
<stop offset="1" stop-color="#16629C"/>
</linearGradient>
<linearGradient id="paint15_linear_0_1" x1="46.6317" y1="36.621" x2="46.6317" y2="25.4499" gradientUnits="userSpaceOnUse">
<stop stop-color="#44CACB"/>
<stop offset="1" stop-color="#16629C"/>
</linearGradient>
<linearGradient id="paint16_linear_0_1" x1="85.9056" y1="30.9044" x2="85.9056" y2="25.4499" gradientUnits="userSpaceOnUse">
<stop stop-color="#44CACB"/>
<stop offset="1" stop-color="#16629C"/>
</linearGradient>
<linearGradient id="paint17_linear_0_1" x1="85.9056" y1="38.1143" x2="85.9056" y2="32.6598" gradientUnits="userSpaceOnUse">
<stop stop-color="#44CACB"/>
<stop offset="1" stop-color="#16629C"/>
</linearGradient>
<linearGradient id="paint18_linear_0_1" x1="66.6453" y1="94.6335" x2="66.6453" y2="11.4259" gradientUnits="userSpaceOnUse">
<stop stop-color="#44CACB"/>
<stop offset="1" stop-color="#16629C"/>
</linearGradient>
<linearGradient id="paint19_linear_0_1" x1="66.6428" y1="87.3116" x2="66.6428" y2="91.8052" gradientUnits="userSpaceOnUse">
<stop stop-color="#44CACB"/>
<stop offset="1" stop-color="#16629C"/>
</linearGradient>
<linearGradient id="paint20_linear_0_1" x1="66.644" y1="30.0826" x2="66.644" y2="43.7081" gradientUnits="userSpaceOnUse">
<stop stop-color="#44CACB"/>
<stop offset="1" stop-color="#16629C"/>
</linearGradient>
<linearGradient id="paint21_linear_0_1" x1="66.644" y1="59.1353" x2="66.644" y2="63.8992" gradientUnits="userSpaceOnUse">
<stop stop-color="#44CACB"/>
<stop offset="1" stop-color="#16629C"/>
</linearGradient>
<linearGradient id="paint22_linear_0_1" x1="55.7091" y1="60.0717" x2="55.7091" y2="62.9628" gradientUnits="userSpaceOnUse">
<stop stop-color="#44CACB"/>
<stop offset="1" stop-color="#16629C"/>
</linearGradient>
<linearGradient id="paint23_linear_0_1" x1="57.6446" y1="60.0717" x2="57.6446" y2="62.9628" gradientUnits="userSpaceOnUse">
<stop stop-color="#44CACB"/>
<stop offset="1" stop-color="#16629C"/>
</linearGradient>
<linearGradient id="paint24_linear_0_1" x1="59.5775" y1="60.0717" x2="59.5775" y2="62.9628" gradientUnits="userSpaceOnUse">
<stop stop-color="#44CACB"/>
<stop offset="1" stop-color="#16629C"/>
</linearGradient>
<linearGradient id="paint25_linear_0_1" x1="61.513" y1="60.0717" x2="61.513" y2="62.9628" gradientUnits="userSpaceOnUse">
<stop stop-color="#44CACB"/>
<stop offset="1" stop-color="#16629C"/>
</linearGradient>
<linearGradient id="paint26_linear_0_1" x1="63.4486" y1="60.0717" x2="63.4486" y2="62.9628" gradientUnits="userSpaceOnUse">
<stop stop-color="#44CACB"/>
<stop offset="1" stop-color="#16629C"/>
</linearGradient>
<linearGradient id="paint27_linear_0_1" x1="65.3814" y1="60.0717" x2="65.3814" y2="62.9628" gradientUnits="userSpaceOnUse">
<stop stop-color="#44CACB"/>
<stop offset="1" stop-color="#16629C"/>
</linearGradient>
<linearGradient id="paint28_linear_0_1" x1="67.317" y1="60.0717" x2="67.317" y2="62.9628" gradientUnits="userSpaceOnUse">
<stop stop-color="#44CACB"/>
<stop offset="1" stop-color="#16629C"/>
</linearGradient>
<linearGradient id="paint29_linear_0_1" x1="59.5242" y1="53.4788" x2="59.5242" y2="55.832" gradientUnits="userSpaceOnUse">
<stop stop-color="#44CACB"/>
<stop offset="1" stop-color="#16629C"/>
</linearGradient>
<linearGradient id="paint30_linear_0_1" x1="61.8474" y1="53.433" x2="61.8474" y2="55.8657" gradientUnits="userSpaceOnUse">
<stop stop-color="#44CACB"/>
<stop offset="1" stop-color="#16629C"/>
</linearGradient>
<linearGradient id="paint31_linear_0_1" x1="64.3864" y1="53.4788" x2="64.3864" y2="55.8238" gradientUnits="userSpaceOnUse">
<stop stop-color="#44CACB"/>
<stop offset="1" stop-color="#16629C"/>
</linearGradient>
<linearGradient id="paint32_linear_0_1" x1="66.9793" y1="53.478" x2="66.9793" y2="55.8238" gradientUnits="userSpaceOnUse">
<stop stop-color="#44CACB"/>
<stop offset="1" stop-color="#16629C"/>
</linearGradient>
<linearGradient id="paint33_linear_0_1" x1="68.8294" y1="53.4788" x2="68.8294" y2="55.8238" gradientUnits="userSpaceOnUse">
<stop stop-color="#44CACB"/>
<stop offset="1" stop-color="#16629C"/>
</linearGradient>
<linearGradient id="paint34_linear_0_1" x1="70.8401" y1="53.4788" x2="70.8401" y2="55.8238" gradientUnits="userSpaceOnUse">
<stop stop-color="#44CACB"/>
<stop offset="1" stop-color="#16629C"/>
</linearGradient>
<linearGradient id="paint35_linear_0_1" x1="73.5465" y1="53.4445" x2="73.5465" y2="55.874" gradientUnits="userSpaceOnUse">
<stop stop-color="#44CACB"/>
<stop offset="1" stop-color="#16629C"/>
</linearGradient>
<linearGradient id="paint36_linear_0_1" x1="66.618" y1="69.3019" x2="66.618" y2="74.2896" gradientUnits="userSpaceOnUse">
<stop stop-color="#44CACB"/>
<stop offset="1" stop-color="#16629C"/>
</linearGradient>
<linearGradient id="paint37_linear_0_1" x1="66.6182" y1="72.3267" x2="66.6182" y2="74.8219" gradientUnits="userSpaceOnUse">
<stop stop-color="#44CACB"/>
<stop offset="1" stop-color="#16629C"/>
</linearGradient>
<linearGradient id="paint38_linear_0_1" x1="66.6168" y1="75.5645" x2="66.6168" y2="76.3835" gradientUnits="userSpaceOnUse">
<stop stop-color="#44CACB"/>
<stop offset="1" stop-color="#16629C"/>
</linearGradient>
<linearGradient id="paint39_linear_0_1" x1="71.1827" y1="14.2186" x2="71.1827" y2="15.6983" gradientUnits="userSpaceOnUse">
<stop stop-color="#44CACB"/>
<stop offset="1" stop-color="#16629C"/>
</linearGradient>
<linearGradient id="paint40_linear_0_1" x1="65.5671" y1="14.2214" x2="65.5671" y2="15.6983" gradientUnits="userSpaceOnUse">
<stop stop-color="#44CACB"/>
<stop offset="1" stop-color="#16629C"/>
</linearGradient>
</defs>
</svg>
