<svg width="80" height="80" viewBox="0 0 80 80" fill="none" xmlns="http://www.w3.org/2000/svg">
<g clip-path="url(#clip0_190_1333)">
<path d="M39.6263 5.28531L40 5.70573L40.3737 5.28531L41.6654 3.83218C43.5636 1.69669 46.1391 0.5 48.8056 0.5C54.3507 0.5 58.9444 5.57853 58.9444 11.9688C58.9444 15.0257 57.8595 17.9523 55.9596 20.0897L41.5848 36.2458L41.5846 36.2459C40.7002 37.2409 39.2859 37.2409 38.4015 36.2459L24.0404 20.0897C22.1405 17.9523 21.0556 15.0257 21.0556 11.9688C21.0556 5.57853 25.6493 0.5 31.1944 0.5C33.8609 0.5 36.4364 1.69669 38.3346 3.83218L39.6263 5.28531ZM77.4173 60.8961L77.417 60.8963L59.8341 75.4741C56.6689 78.0914 52.8637 79.5 48.9444 79.5H26.6667H4.44444C2.31599 79.5 0.5 77.5465 0.5 75V65C0.5 62.4535 2.31599 60.5 4.44444 60.5H9.55556H9.74774L9.89045 60.3713L16.1266 54.7463C19.1915 51.9818 22.9901 50.5 26.9028 50.5H37.7778H40H48.8889C51.0173 50.5 52.8333 52.4535 52.8333 55C52.8333 57.5465 51.0173 59.5 48.8889 59.5H40H37.7778C36.2257 59.5 35.0556 60.9058 35.0556 62.5C35.0556 64.0942 36.2257 65.5 37.7778 65.5H54.5278H54.7081L54.8469 65.3849L71.4716 51.6039C73.6992 49.7595 76.8314 50.2726 78.4983 52.8206C80.1861 55.4007 79.6828 59.0204 77.4173 60.8961ZM26.7639 60.5H26.7641H26.7644H26.7646H26.7649H26.7651H26.7654H26.7656H26.7658H26.7661H26.7663H26.7666H26.7668H26.7671H26.7673H26.7676H26.7678H26.768H26.7683H26.7685H26.7688H26.769H26.7693H26.7695H26.7697H26.77H26.7702H26.7705H26.7707H26.771H26.7712H26.7715H26.7717H26.7719H26.7722H26.7724H26.7727H26.7729H26.7732H26.7734H26.7737H26.7739H26.7741H26.7744H26.7746H26.7749H26.7751H26.7754H26.7756H26.7759H26.7761H26.7763H26.7766H26.7768H26.7771H26.7773H26.7776H26.7778H26.778H26.7783H26.7785H26.7788H26.779H26.7793H26.7795H26.7798H26.78H26.7802H26.7805H26.7807H26.781H26.7812H26.7815H26.7817H26.782H26.7822H26.7824H26.7827H26.7829H26.7832H26.7834H26.7837H26.7839H26.7842H26.7844H26.7846H26.7849H26.7851H26.7854H26.7856H26.7859H26.7861H26.7864H26.7866H26.7868H26.7871H26.7873H26.7876H26.7878H26.7881H26.7883H26.7885H26.7888H26.789H26.7893H26.7895H26.7898H26.79H26.7903H26.7905H26.7907H26.791H26.7912H26.7915H26.7917H26.792H26.7922H26.7925H26.7927H26.7929H26.7932H26.7934H26.7937H26.7939H26.7942H26.7944H26.7947H26.7949H26.7951H26.7954H26.7956H26.7959H26.7961H26.7964H26.7966H26.7968H26.7971H26.7973H26.7976H26.7978H26.7981H26.7983H26.7986H26.7988H26.799H26.7993H26.7995H26.7998H26.8H26.8003H26.8005H26.8008H26.801H26.8012H26.8015H26.8017H26.802H26.8022H26.8025H26.8027H26.803H26.8032H26.8034H26.8037H26.8039H26.8042H26.8044H26.8047H26.8049H26.8051H26.8054H26.8056H26.8059H26.8061H26.8064H26.8066H26.8069H26.8071H26.8073H26.8076H26.8078H26.8081H26.8083H26.8086H26.8088H26.8091H26.8093H26.8095H26.8098H26.81H26.8103H26.8105H26.8108H26.811H26.8113H26.8115H26.8117H26.812H26.8122H26.8125H26.8127H26.813H26.8132H26.8134H26.8137H26.8139H26.8142H26.8144H26.8147H26.8149H26.8152H26.8154H26.8156H26.8159H26.8161H26.8164H26.8166H26.8169H26.8171H26.8174H26.8176H26.8178H26.8181H26.8183H26.8186H26.8188H26.8191H26.8193H26.8196H26.8198H26.82H26.8203H26.8205H26.8208H26.821H26.8213H26.8215H26.8218H26.822H26.8222H26.8225H26.8227H26.823H26.8232H26.8235H26.8237H26.8239H26.8242H26.8244H26.8247H26.8249H26.8252H26.8254H26.8257H26.8259H26.8261H26.8264H26.8266H26.8269H26.8271H26.8274H26.8276H26.8279H26.8281H26.8283H26.8286H26.8288H26.8291H26.8293H26.8296H26.8298H26.8301H26.8303H26.8305H26.8308H26.831H26.8313H26.8315H26.8318H26.832H26.8323H26.8325H26.8327H26.833H26.8332H26.8335H26.8337H26.834H26.8342H26.8344H26.8347H26.8349H26.8352H26.8354H26.8357H26.8359H26.8362H26.8364H26.8366H26.8369H26.8371H26.8374H26.8376H26.8379H26.8381H26.8384H26.8386H26.8388H26.8391H26.8393H26.8396H26.8398H26.8401H26.8403H26.8406H26.8408H26.841H26.8413H26.8415H26.8418H26.842H26.8423H26.8425H26.8427H26.843H26.8432H26.8435H26.8437H26.844H26.8442H26.8445H26.8447H26.8449H26.8452H26.8454H26.8457H26.8459H26.8462H26.8464H26.8467H26.8469H26.8471H26.8474H26.8476H26.8479H26.8481H26.8484H26.8486H26.8489H26.8491H26.8493H26.8496H26.8498H26.8501H26.8503H26.8506H26.8508H26.851H26.8513H26.8515H26.8518H26.852H26.8523H26.8525H26.8528H26.853H26.8532H26.8535H26.8537H26.854H26.8542H26.8545H26.8547H26.855H26.8552H26.8554H26.8557H26.8559H26.8562H26.8564H26.8567H26.8569H26.8572H26.8574H26.8576H26.8579H26.8581H26.8584H26.8586H26.8589H26.8591H26.8594H26.8596H26.8598H26.8601H26.8603H26.8606H26.8608H26.8611H26.8613H26.8615H26.8618H26.862H26.8623H26.8625H26.8628H26.863H26.8633H26.8635H26.8637H26.864H26.8642H26.8645H26.8647H26.865H26.8652H26.8655H26.8657H26.8659H26.8662H26.8664H26.8667H26.8669H26.8672H26.8674H26.8677H26.8679H26.8681H26.8684H26.8686H26.8689H26.8691H26.8694H26.8696H26.8698H26.8701H26.8703H26.8706H26.8708H26.8711H26.8713H26.8716H26.8718H26.872H26.8723H26.8725H26.8728H26.873H26.8733H26.8735H26.8738H26.874H26.8742H26.8745H26.8747H26.875H26.8752H26.8755H26.8757H26.876H26.8762H26.8764H26.8767H26.8769H26.8772H26.8774H26.8777H26.8779H26.8781H26.8784H26.8786H26.8789H26.8791H26.8794H26.8796H26.8799H26.8801H26.8803H26.8806H26.8808H26.8811H26.8813H26.8816H26.8818H26.8821H26.8823H26.8825H26.8828H26.883H26.8833H26.8835H26.8838H26.884H26.8843H26.8845H26.8847H26.885H26.8852H26.8855H26.8857H26.886H26.8862H26.8864H26.8867H26.8869H26.8872H26.8874H26.8877H26.8879H26.8882H26.8884H26.8886H26.8889V60V59.5H26.8886H26.8884H26.8882H26.8879H26.8877H26.8874H26.8872H26.8869H26.8867H26.8864H26.8862H26.886H26.8857H26.8855H26.8852H26.885H26.8847H26.8845H26.8843H26.884H26.8838H26.8835H26.8833H26.883H26.8828H26.8825H26.8823H26.8821H26.8818H26.8816H26.8813H26.8811H26.8808H26.8806H26.8803H26.8801H26.8799H26.8796H26.8794H26.8791H26.8789H26.8786H26.8784H26.8781H26.8779H26.8777H26.8774H26.8772H26.8769H26.8767H26.8764H26.8762H26.876H26.8757H26.8755H26.8752H26.875H26.8747H26.8745H26.8742H26.874H26.8738H26.8735H26.8733H26.873H26.8728H26.8725H26.8723H26.872H26.8718H26.8716H26.8713H26.8711H26.8708H26.8706H26.8703H26.8701H26.8698H26.8696H26.8694H26.8691H26.8689H26.8686H26.8684H26.8681H26.8679H26.8677H26.8674H26.8672H26.8669H26.8667H26.8664H26.8662H26.8659H26.8657H26.8655H26.8652H26.865H26.8647H26.8645H26.8642H26.864H26.8637H26.8635H26.8633H26.863H26.8628H26.8625H26.8623H26.862H26.8618H26.8615H26.8613H26.8611H26.8608H26.8606H26.8603H26.8601H26.8598H26.8596H26.8594H26.8591H26.8589H26.8586H26.8584H26.8581H26.8579H26.8576H26.8574H26.8572H26.8569H26.8567H26.8564H26.8562H26.8559H26.8557H26.8554H26.8552H26.855H26.8547H26.8545H26.8542H26.854H26.8537H26.8535H26.8532H26.853H26.8528H26.8525H26.8523H26.852H26.8518H26.8515H26.8513H26.851H26.8508H26.8506H26.8503H26.8501H26.8498H26.8496H26.8493H26.8491H26.8489H26.8486H26.8484H26.8481H26.8479H26.8476H26.8474H26.8471H26.8469H26.8467H26.8464H26.8462H26.8459H26.8457H26.8454H26.8452H26.8449H26.8447H26.8445H26.8442H26.844H26.8437H26.8435H26.8432H26.843H26.8427H26.8425H26.8423H26.842H26.8418H26.8415H26.8413H26.841H26.8408H26.8406H26.8403H26.8401H26.8398H26.8396H26.8393H26.8391H26.8388H26.8386H26.8384H26.8381H26.8379H26.8376H26.8374H26.8371H26.8369H26.8366H26.8364H26.8362H26.8359H26.8357H26.8354H26.8352H26.8349H26.8347H26.8344H26.8342H26.834H26.8337H26.8335H26.8332H26.833H26.8327H26.8325H26.8323H26.832H26.8318H26.8315H26.8313H26.831H26.8308H26.8305H26.8303H26.8301H26.8298H26.8296H26.8293H26.8291H26.8288H26.8286H26.8283H26.8281H26.8279H26.8276H26.8274H26.8271H26.8269H26.8266H26.8264H26.8261H26.8259H26.8257H26.8254H26.8252H26.8249H26.8247H26.8244H26.8242H26.8239H26.8237H26.8235H26.8232H26.823H26.8227H26.8225H26.8222H26.822H26.8218H26.8215H26.8213H26.821H26.8208H26.8205H26.8203H26.82H26.8198H26.8196H26.8193H26.8191H26.8188H26.8186H26.8183H26.8181H26.8178H26.8176H26.8174H26.8171H26.8169H26.8166H26.8164H26.8161H26.8159H26.8156H26.8154H26.8152H26.8149H26.8147H26.8144H26.8142H26.8139H26.8137H26.8134H26.8132H26.813H26.8127H26.8125H26.8122H26.812H26.8117H26.8115H26.8113H26.811H26.8108H26.8105H26.8103H26.81H26.8098H26.8095H26.8093H26.8091H26.8088H26.8086H26.8083H26.8081H26.8078H26.8076H26.8073H26.8071H26.8069H26.8066H26.8064H26.8061H26.8059H26.8056H26.8054H26.8051H26.8049H26.8047H26.8044H26.8042H26.8039H26.8037H26.8034H26.8032H26.803H26.8027H26.8025H26.8022H26.802H26.8017H26.8015H26.8012H26.801H26.8008H26.8005H26.8003H26.8H26.7998H26.7995H26.7993H26.799H26.7988H26.7986H26.7983H26.7981H26.7978H26.7976H26.7973H26.7971H26.7968H26.7966H26.7964H26.7961H26.7959H26.7956H26.7954H26.7951H26.7949H26.7947H26.7944H26.7942H26.7939H26.7937H26.7934H26.7932H26.7929H26.7927H26.7925H26.7922H26.792H26.7917H26.7915H26.7912H26.791H26.7907H26.7905H26.7903H26.79H26.7898H26.7895H26.7893H26.789H26.7888H26.7885H26.7883H26.7881H26.7878H26.7876H26.7873H26.7871H26.7868H26.7866H26.7864H26.7861H26.7859H26.7856H26.7854H26.7851H26.7849H26.7846H26.7844H26.7842H26.7839H26.7837H26.7834H26.7832H26.7829H26.7827H26.7824H26.7822H26.782H26.7817H26.7815H26.7812H26.781H26.7807H26.7805H26.7802H26.78H26.7798H26.7795H26.7793H26.779H26.7788H26.7785H26.7783H26.778H26.7778H26.7776H26.7773H26.7771H26.7768H26.7766H26.7763H26.7761H26.7759H26.7756H26.7754H26.7751H26.7749H26.7746H26.7744H26.7741H26.7739H26.7737H26.7734H26.7732H26.7729H26.7727H26.7724H26.7722H26.7719H26.7717H26.7715H26.7712H26.771H26.7707H26.7705H26.7702H26.77H26.7697H26.7695H26.7693H26.769H26.7688H26.7685H26.7683H26.768H26.7678H26.7676H26.7673H26.7671H26.7668H26.7666H26.7663H26.7661H26.7658H26.7656H26.7654H26.7651H26.7649H26.7646H26.7644H26.7641H26.7639V60V60.5Z" fill="url(#paint0_linear_190_1333)" stroke="url(#paint1_linear_190_1333)"/>
</g>
<defs>
<linearGradient id="paint0_linear_190_1333" x1="39.9996" y1="0" x2="39.9996" y2="80" gradientUnits="userSpaceOnUse">
<stop stop-color="#44CACB"/>
<stop offset="1" stop-color="#16629C"/>
</linearGradient>
<linearGradient id="paint1_linear_190_1333" x1="39.9996" y1="0" x2="39.9996" y2="80" gradientUnits="userSpaceOnUse">
<stop stop-color="#44CACB"/>
<stop offset="1" stop-color="#16629C"/>
</linearGradient>
<clipPath id="clip0_190_1333">
<rect width="80" height="80" fill="white"/>
</clipPath>
</defs>
</svg>