<svg width="80" height="80" viewBox="0 0 80 80" fill="none" xmlns="http://www.w3.org/2000/svg">
<path d="M68.4789 37.8823C68.1191 30.5122 63.2075 24.5 57 24.5H52H40H38H37.5V25V27.5V38.75C37.5 42.0369 35.388 44.5 33 44.5C30.612 44.5 28.5 42.0369 28.5 38.75V20.5H28.5075L28.548 20.0443C29.0339 14.5788 32.7097 10.5 37 10.5H51C51.321 10.5 51.6472 10.5287 51.9687 10.5734L52.2503 10.6125L52.4279 10.3905L57.4404 4.12485C58.7246 2.51969 60.377 1.74609 62 1.74609C63.623 1.74609 65.2754 2.51969 66.5596 4.12485L76.3221 16.328C78.9135 19.5672 78.9135 24.839 76.3221 28.0783L68.4789 37.8823ZM12.5 35C12.5 27.1024 17.4721 20.8433 23.5 20.5137V38.75C23.5 45.135 27.6505 50.5 33 50.5C38.3495 50.5 42.5 45.135 42.5 38.75V30.5H52H57C60.488 30.5 63.5 34.0881 63.5 38.75C63.5 42.8387 61.1715 46.1315 58.2301 46.8583L57.4903 47.0411L57.9525 47.647C58.9067 48.898 59.5 50.6022 59.5 52.5C59.5 56.4744 56.938 59.5 54 59.5H53.6625H52.9982L53.182 60.1384C53.3929 60.8706 53.5 61.6674 53.5 62.5C53.5 66.4744 50.938 69.5 48 69.5H28C27.8819 69.5 27.8039 69.4992 27.7313 69.4891L27.4497 69.45L27.2721 69.672L22.5596 75.5627C21.2754 77.1678 19.623 77.9414 18 77.9414C16.377 77.9414 14.7246 77.1678 13.4404 75.5627L13.4402 75.5624L3.67793 63.3752C1.08652 60.1359 1.08652 54.8641 3.67793 51.6248L12.3904 40.7342L12.5 40.5973V40.4219V35Z" fill="url(#paint0_linear_190_1331)" stroke="url(#paint1_linear_190_1331)"/>
<defs>
<linearGradient id="paint0_linear_190_1331" x1="40" y1="1.24609" x2="40" y2="78.4414" gradientUnits="userSpaceOnUse">
<stop stop-color="#44CACB"/>
<stop offset="1" stop-color="#16629C"/>
</linearGradient>
<linearGradient id="paint1_linear_190_1331" x1="40" y1="1.24609" x2="40" y2="78.4414" gradientUnits="userSpaceOnUse">
<stop stop-color="#44CACB"/>
<stop offset="1" stop-color="#16629C"/>
</linearGradient>
</defs>
</svg>
