<svg width="80" height="80" viewBox="0 0 80 80" fill="none" xmlns="http://www.w3.org/2000/svg">
<g clip-path="url(#clip0_190_1335)">
<path d="M24.4687 60.1406L19.6405 55.3125C18.3124 53.9844 17.8437 52.0625 18.4374 50.2812C18.9062 48.8906 19.5312 47.0781 20.2812 45H3.74991C2.40616 45 1.15616 44.2812 0.484282 43.1094C-0.187593 41.9375 -0.171968 40.5 0.515532 39.3438L8.71866 25.5156C10.7499 22.0937 14.4218 20 18.3905 20H31.2499C31.6249 19.375 31.9999 18.7969 32.3749 18.2344C45.1718 -0.640628 64.2343 -1.26563 75.6093 0.828123C77.4218 1.15625 78.828 2.57812 79.1718 4.39062C81.2655 15.7812 80.6249 34.8281 61.7655 47.625C61.2187 48 60.6249 48.375 59.9999 48.75V61.6094C59.9999 65.5781 57.9062 69.2656 54.4843 71.2812L40.6562 79.4844C39.4999 80.1719 38.0624 80.1875 36.8905 79.5156C35.7187 78.8438 34.9999 77.6094 34.9999 76.25V59.5C32.7968 60.2656 30.8749 60.8906 29.4218 61.3594C27.6718 61.9219 25.7655 61.4375 24.453 60.1406H24.4687ZM59.9999 26.25C63.453 26.25 66.2499 23.4531 66.2499 20C66.2499 16.5469 63.453 13.75 59.9999 13.75C56.5468 13.75 53.7499 16.5469 53.7499 20C53.7499 23.4531 56.5468 26.25 59.9999 26.25Z" fill="url(#paint0_linear_190_1335)"/>
</g>
<defs>
<linearGradient id="paint0_linear_190_1335" x1="39.9921" y1="0.0038147" x2="39.9921" y2="80.0099" gradientUnits="userSpaceOnUse">
<stop stop-color="#44CACB"/>
<stop offset="1" stop-color="#16629C"/>
</linearGradient>
<clipPath id="clip0_190_1335">
<rect width="80" height="80" fill="white"/>
</clipPath>
</defs>
</svg>
