<svg width="110" height="102" viewBox="0 0 110 102" fill="none" xmlns="http://www.w3.org/2000/svg">
<path d="M105.783 59.078C108.256 50.9981 109.571 42.6079 109.686 34.1586C109.823 25.4608 108.867 16.0559 103.134 9.5367C97.5052 3.16215 88.4716 0.983609 79.9731 0.612329C76.5306 0.464909 73.0144 0.563191 69.7466 1.65519C63.1482 3.86103 58.5235 9.71142 52.6704 13.4734C41.3709 20.7352 26.1048 19.8752 15.2421 27.7758C12.4612 29.8338 10.0406 32.3383 8.07859 35.1878C0.161592 46.5309 -0.458119 62.2448 5.5861 74.6881C11.6303 87.1315 23.7706 96.1623 37.205 99.482C50.6393 102.802 65.1356 100.609 77.5844 94.568C92.0889 87.5273 101.122 74.0493 105.783 59.078Z" fill="url(#paint0_linear_0_1)"/>
<path opacity="0.7" d="M105.783 59.078C108.256 50.9981 109.571 42.6079 109.686 34.1586C109.823 25.4608 108.867 16.0559 103.134 9.5367C97.5052 3.16215 88.4716 0.983609 79.9731 0.612329C76.5306 0.464909 73.0144 0.563191 69.7466 1.65519C63.1482 3.86103 58.5235 9.71142 52.6704 13.4734C41.3709 20.7352 26.1048 19.8752 15.2421 27.7758C12.4612 29.8338 10.0406 32.3383 8.07859 35.1878C0.161592 46.5309 -0.458119 62.2448 5.5861 74.6881C11.6303 87.1315 23.7706 96.1623 37.205 99.482C50.6393 102.802 65.1356 100.609 77.5844 94.568C92.0889 87.5273 101.122 74.0493 105.783 59.078Z" fill="white"/>
<path d="M85.742 6.74666V63.6562C85.7423 64.0589 85.6633 64.4578 85.5093 64.8299C85.3554 65.202 85.1296 65.5401 84.8448 65.8249C84.5601 66.1096 84.222 66.3354 83.8498 66.4894C83.4777 66.6433 83.0789 66.7224 82.6762 66.722H6.78219C6.37893 66.7235 5.97935 66.6452 5.60644 66.4917C5.23352 66.3382 4.89462 66.1125 4.60921 65.8276C4.3238 65.5427 4.09752 65.2042 3.94336 64.8316C3.78921 64.4589 3.71022 64.0595 3.71094 63.6562V6.74666C3.71058 6.34418 3.78955 5.94558 3.94332 5.57364C4.09709 5.20169 4.32266 4.8637 4.60713 4.57898C4.89159 4.29426 5.22938 4.06839 5.60119 3.91429C5.97299 3.76018 6.37153 3.68087 6.774 3.68087H82.668C83.0714 3.67943 83.4711 3.75769 83.8442 3.91115C84.2172 4.06461 84.5563 4.29024 84.8419 4.57511C85.1276 4.85997 85.3541 5.19845 85.5086 5.57111C85.663 5.94376 85.7423 6.34326 85.742 6.74666V6.74666Z" fill="white"/>
<path d="M85.7422 8.50476V63.6508C85.7433 64.0539 85.6648 64.4533 85.5111 64.8261C85.3575 65.1988 85.1318 65.5376 84.847 65.8229C84.5622 66.1083 84.2238 66.3346 83.8513 66.4889C83.4789 66.6431 83.0796 66.7224 82.6764 66.722H6.78242C6.49424 66.7227 6.20743 66.6822 5.93066 66.6019L85.7422 8.50476Z" fill="#263238"/>
<path opacity="0.9" d="M85.7422 8.50476V63.6508C85.7433 64.0539 85.6648 64.4533 85.5111 64.8261C85.3575 65.1988 85.1318 65.5376 84.847 65.8229C84.5622 66.1083 84.2238 66.3346 83.8513 66.4889C83.4789 66.6431 83.0796 66.7224 82.6764 66.722H6.78242C6.49424 66.7227 6.20743 66.6822 5.93066 66.6019L85.7422 8.50476Z" fill="white"/>
<path d="M64.702 39.3128L68.8489 37.4455L67.9644 32.5015L63.3889 32.1356C62.8157 30.6089 62.0457 29.1634 61.0984 27.8359L62.529 25.4144L63.4435 23.861L59.8945 20.3393L55.9224 22.7253C53.6412 21.151 51.0499 20.0825 48.322 19.5913L47.1782 15.0377H42.1659L41.0029 19.6241C39.4537 19.9359 37.9445 20.4213 36.5039 21.071L32.903 17.9697L28.7944 20.7679L30.5033 25.2042C29.4166 26.3299 28.4764 27.5884 27.7051 28.9497L22.9767 28.472L21.2759 33.1922L25.1689 35.8484C24.9797 36.9567 24.8884 38.0794 24.8959 39.2036C24.8631 39.6662 24.8631 40.1306 24.8959 40.5932L20.7627 42.9137L22.0731 47.7485H26.7414C27.1889 48.7108 27.713 49.6356 28.3084 50.514C28.6142 50.9635 28.9372 51.4013 29.2776 51.8271L27.2628 55.9904L31.1203 59.2254L34.8413 56.4381C36.256 57.2557 37.7674 57.8931 39.3403 58.3355L40.0856 62.8345L45.0979 63.2795L46.5994 59.0371C48.2364 58.8743 49.8488 58.5216 51.4042 57.986L54.5847 61.1637L58.939 58.6521L57.7405 54.3169C59.0059 53.2561 60.1323 52.0398 61.093 50.6969L65.5047 51.4886L67.6286 46.9404L64.1615 44.1449C64.5374 42.5622 64.719 40.9395 64.702 39.3128V39.3128ZM53.2497 39.3128C53.2495 41.2829 52.5667 43.192 51.3174 44.7153C50.0681 46.2385 48.3295 47.2818 46.3976 47.6675C44.4657 48.0532 42.4598 47.7576 40.7213 46.8308C38.9828 45.9041 37.6192 44.4036 36.8626 42.5846C36.1059 40.7657 36.0029 38.7407 36.5712 36.8544C37.1395 34.9681 38.3438 33.337 39.9793 32.2387C41.6148 31.1404 43.5804 30.6428 45.5415 30.8306C47.5026 31.0183 49.338 31.8799 50.7354 33.2686C50.8882 33.4215 51.0384 33.5798 51.1749 33.7463C52.5041 35.276 53.2403 37.2318 53.2497 39.2582V39.3128Z" fill="url(#paint1_linear_0_1)" stroke="#263238" stroke-width="1.02934" stroke-miterlimit="10"/>
<path opacity="0.2" d="M64.1616 44.1313L67.6287 46.9268L65.5047 51.475L61.0931 50.6833C60.1324 52.0262 59.006 53.2425 57.7406 54.3033L58.9391 58.6385L54.5847 61.1501L51.4043 57.986C49.8477 58.5266 48.2334 58.884 46.594 59.0507L45.098 63.2795L40.0884 62.8345L39.3431 58.3355C37.7702 57.8931 36.2588 57.2557 34.8441 56.4381L31.1231 59.2255L27.2656 55.9904L29.264 51.8272C28.9236 51.4013 28.6006 50.9636 28.2948 50.514L37.4731 43.79C38.4485 45.367 39.9114 46.583 41.6402 47.2537C43.3689 47.9244 45.2691 48.0133 47.0529 47.5067C48.8366 47.0002 50.4066 45.926 51.5249 44.4469C52.6431 42.9678 53.2487 41.1644 53.2498 39.3101V39.2555C53.2404 37.2291 52.5042 35.2733 51.175 33.7436L62.54 25.4117L61.1094 27.8332C62.0531 29.1622 62.8194 30.6085 63.389 32.1357L67.9426 32.5015L68.849 37.4455L64.713 39.3128C64.7253 40.9354 64.5401 42.5534 64.1616 44.1313V44.1313Z" fill="black"/>
<path d="M81.9311 26.1706L82.1385 26.075C82.2547 26.0242 82.3503 25.9356 82.4097 25.8236C82.4692 25.7116 82.4891 25.5828 82.4661 25.4581L82.4224 25.2042C82.4019 25.0792 82.3397 24.9649 82.2461 24.8797C82.1524 24.7945 82.0328 24.7434 81.9065 24.7346L81.6553 24.7155C81.5574 24.709 81.4629 24.6772 81.381 24.6231C81.2992 24.569 81.2328 24.4945 81.1885 24.407C81.1202 24.2623 81.0493 24.134 80.9701 23.9893C80.9205 23.9039 80.8943 23.8069 80.8943 23.7081C80.8943 23.6094 80.9205 23.5123 80.9701 23.4269L81.0984 23.2085C81.162 23.0992 81.1876 22.9719 81.1713 22.8465C81.155 22.7211 81.0977 22.6046 81.0083 22.5151L80.8281 22.3349C80.7405 22.2413 80.6227 22.1816 80.4954 22.1661C80.3682 22.1506 80.2395 22.1804 80.132 22.2503L79.9108 22.3813C79.8254 22.431 79.7284 22.4571 79.6297 22.4571C79.5309 22.4571 79.4339 22.431 79.3485 22.3813C78.9901 22.1752 78.6053 22.0191 78.2046 21.9172C78.1063 21.8915 78.0168 21.8395 77.9457 21.7669C77.8745 21.6943 77.8244 21.6038 77.8006 21.505L77.735 21.232C77.706 21.1058 77.6341 20.9935 77.5316 20.9143C77.429 20.8351 77.3021 20.794 77.1727 20.7979H76.9215C76.7924 20.7939 76.6658 20.8346 76.5633 20.9132C76.4608 20.9919 76.3887 21.1035 76.3591 21.2293L76.2881 21.5023C76.2636 21.5989 76.2142 21.6873 76.1447 21.7587C76.0752 21.8301 75.9882 21.8819 75.8923 21.9091C75.7503 21.9473 75.6193 21.991 75.4801 22.0401C75.3856 22.0747 75.2836 22.0833 75.1847 22.065C75.0858 22.0468 74.9936 22.0024 74.9177 21.9364L74.6911 21.7425C74.5967 21.6601 74.4774 21.6116 74.3523 21.6047C74.2272 21.5977 74.1033 21.6328 74.0004 21.7043L73.8011 21.8381C73.6941 21.91 73.6149 22.0164 73.5766 22.1395C73.5384 22.2627 73.5434 22.3952 73.5909 22.5151L73.6919 22.7881C73.7281 22.8813 73.7391 22.9823 73.7238 23.081C73.7084 23.1798 73.6673 23.2727 73.6046 23.3505C73.5145 23.457 73.4298 23.5689 73.3507 23.6836C73.295 23.7686 73.2167 23.8364 73.1245 23.8793C73.0324 23.9222 72.9301 23.9386 72.8292 23.9265L72.5562 23.8992C72.4297 23.8853 72.3023 23.9148 72.1947 23.9827C72.0871 24.0506 72.0057 24.1531 71.9638 24.2732L71.8737 24.5217C71.8301 24.6385 71.8265 24.7666 71.8635 24.8857C71.9006 25.0048 71.9762 25.1082 72.0785 25.1796L72.3378 25.3625C72.4187 25.4198 72.483 25.4974 72.5243 25.5875C72.5655 25.6777 72.5822 25.7771 72.5726 25.8757C72.5572 26.0226 72.5499 26.1703 72.5508 26.318V26.318C72.5478 26.4139 72.5213 26.5076 72.4737 26.5909C72.4261 26.6741 72.3588 26.7445 72.2778 26.7958L72.0048 26.9404C71.892 27.0014 71.8035 27.0991 71.7539 27.2172C71.7042 27.3354 71.6964 27.467 71.7318 27.5902L71.7973 27.8359C71.8294 27.9594 71.9026 28.0682 72.0048 28.1446C72.107 28.221 72.2321 28.2604 72.3597 28.2563H72.6327C72.7313 28.2547 72.8287 28.2791 72.9149 28.327C73.0012 28.3749 73.0733 28.4447 73.1241 28.5293C73.2005 28.6631 73.2824 28.8023 73.367 28.9197C73.4232 29.0013 73.4568 29.0963 73.4645 29.195C73.4722 29.2938 73.4536 29.3928 73.4107 29.4821L73.2961 29.7196C73.2394 29.8336 73.2232 29.9635 73.25 30.088C73.2767 30.2125 73.345 30.3242 73.4435 30.4048L73.6373 30.5686C73.7341 30.6517 73.8563 30.6994 73.9838 30.7038C74.1113 30.7083 74.2365 30.6693 74.3389 30.5932L74.5382 30.454C74.6188 30.396 74.7133 30.3605 74.812 30.3509C74.9108 30.3413 75.0104 30.358 75.1006 30.3994C75.2425 30.4676 75.3872 30.5304 75.5374 30.585C75.63 30.6193 75.7119 30.6776 75.7747 30.7538C75.8375 30.8301 75.879 30.9216 75.895 31.0191L75.936 31.262C75.9562 31.3876 76.0186 31.5025 76.1129 31.5879C76.2072 31.6732 76.3277 31.7239 76.4547 31.7316L76.7113 31.7562C76.8371 31.7673 76.9629 31.7359 77.0688 31.6672C77.1747 31.5984 77.2545 31.4961 77.2955 31.3767L77.3747 31.1556C77.4084 31.061 77.4666 30.9771 77.5433 30.9123C77.6201 30.8476 77.7126 30.8043 77.8115 30.787C77.9708 30.7628 78.1285 30.7291 78.2838 30.686C78.3798 30.6587 78.4815 30.6583 78.5778 30.6848C78.674 30.7112 78.7612 30.7636 78.8298 30.8362L78.9963 31.0054C79.0841 31.0956 79.1995 31.1538 79.3242 31.1706C79.449 31.1875 79.5757 31.162 79.6843 31.0982L79.9081 30.9699C80.0203 30.9091 80.1084 30.8118 80.158 30.6943C80.2076 30.5767 80.2158 30.4457 80.1811 30.3229L80.1183 30.1018C80.089 30.004 80.0867 29.9 80.1117 29.801C80.1367 29.702 80.188 29.6116 80.2603 29.5394C80.3776 29.4253 80.4888 29.305 80.5933 29.179C80.6573 29.0993 80.7424 29.039 80.839 29.0052C80.9355 28.9715 81.0396 28.9655 81.1393 28.9879L81.3632 29.0289C81.4875 29.0562 81.6175 29.0393 81.7307 28.981C81.8438 28.9227 81.9331 28.8266 81.9829 28.7095L82.0894 28.4774C82.1453 28.3623 82.1601 28.2315 82.1313 28.1068C82.1025 27.9822 82.0318 27.8711 81.9311 27.7922L81.7618 27.6557C81.6841 27.5943 81.6241 27.5135 81.5876 27.4215C81.5512 27.3295 81.5397 27.2294 81.5543 27.1315C81.5812 26.9643 81.5985 26.7957 81.6062 26.6265C81.6158 26.5288 81.6509 26.4352 81.7079 26.3552C81.7649 26.2753 81.8418 26.2116 81.9311 26.1706V26.1706ZM79.9136 26.318C79.9136 26.8817 79.7464 27.4327 79.4332 27.9014C79.1201 28.3701 78.6749 28.7355 78.1541 28.9512C77.6334 29.1669 77.0603 29.2233 76.5074 29.1134C75.9546 29.0034 75.4467 28.7319 75.0481 28.3333C74.6495 27.9347 74.3781 27.4269 74.2681 26.874C74.1581 26.3212 74.2146 25.7481 74.4303 25.2273C74.646 24.7065 75.0113 24.2614 75.48 23.9482C75.9487 23.635 76.4998 23.4679 77.0635 23.4679C77.8158 23.4672 78.5377 23.7648 79.0709 24.2954C79.6042 24.8261 79.9052 25.5466 79.9081 26.2989L79.9136 26.318Z" fill="url(#paint2_linear_0_1)" stroke="#263238" stroke-width="1.02934" stroke-miterlimit="10"/>
<path d="M85.742 6.74666V6.90227H3.71094V6.74666C3.71058 6.34418 3.78954 5.94558 3.94332 5.57364C4.09709 5.20169 4.32265 4.8637 4.60712 4.57898C4.89159 4.29426 5.22938 4.06839 5.60119 3.91429C5.97299 3.76018 6.37152 3.68087 6.774 3.68087H82.668C83.0714 3.67943 83.4711 3.75769 83.8442 3.91115C84.2172 4.06461 84.5563 4.29024 84.8419 4.57511C85.1276 4.85997 85.3541 5.19845 85.5086 5.57111C85.663 5.94376 85.7423 6.34326 85.742 6.74666V6.74666Z" fill="#263238"/>
<path d="M85.742 6.74666V63.6562C85.7423 64.0589 85.6633 64.4578 85.5093 64.8299C85.3554 65.202 85.1296 65.5401 84.8448 65.8249C84.5601 66.1096 84.222 66.3354 83.8498 66.4894C83.4777 66.6433 83.0789 66.7224 82.6762 66.722H6.78219C6.37902 66.7231 5.97961 66.6446 5.60686 66.491C5.23411 66.3373 4.89535 66.1116 4.61001 65.8268C4.32468 65.542 4.09838 65.2036 3.9441 64.8312C3.78981 64.4587 3.71058 64.0594 3.71094 63.6562V6.74666C3.71058 6.34418 3.78954 5.94558 3.94332 5.57364C4.09709 5.20169 4.32265 4.8637 4.60712 4.57898C4.89159 4.29426 5.22938 4.06839 5.60119 3.91429C5.97299 3.76018 6.37152 3.68087 6.774 3.68087H82.668C83.0714 3.67943 83.4711 3.75769 83.8442 3.91115C84.2172 4.06461 84.5563 4.29024 84.8419 4.57511C85.1276 4.85997 85.3541 5.19845 85.5086 5.57111C85.663 5.94376 85.7423 6.34326 85.742 6.74666V6.74666Z" stroke="#263238" stroke-width="1.02934" stroke-linecap="round" stroke-linejoin="round"/>
<path d="M3.71094 6.74664H85.742" stroke="#263238" stroke-width="1.02934" stroke-linecap="round" stroke-linejoin="round"/>
<path d="M10.5496 5.297C10.5496 5.42011 10.5131 5.54045 10.4447 5.64281C10.3763 5.74517 10.2791 5.82495 10.1653 5.87206C10.0516 5.91917 9.92644 5.9315 9.8057 5.90748C9.68496 5.88346 9.57405 5.82418 9.487 5.73713C9.39995 5.65008 9.34066 5.53917 9.31665 5.41843C9.29263 5.29769 9.30496 5.17254 9.35207 5.0588C9.39918 4.94507 9.47896 4.84785 9.58132 4.77946C9.68368 4.71107 9.80402 4.67456 9.92713 4.67456C10.0922 4.67456 10.2505 4.74014 10.3673 4.85687C10.484 4.9736 10.5496 5.13192 10.5496 5.297Z" fill="url(#paint3_linear_0_1)"/>
<path d="M13.4953 5.297C13.4942 5.42033 13.4565 5.54056 13.387 5.64241C13.3174 5.74427 13.2192 5.82317 13.1047 5.86911C12.9903 5.91504 12.8648 5.92594 12.7441 5.90041C12.6234 5.87488 12.5131 5.81408 12.427 5.72572C12.341 5.63737 12.2831 5.52544 12.2608 5.40415C12.2384 5.28285 12.2527 5.15765 12.3016 5.04445C12.3505 4.93124 12.432 4.83512 12.5357 4.76829C12.6393 4.70147 12.7605 4.66694 12.8838 4.6691C13.048 4.67198 13.2043 4.73957 13.3188 4.85717C13.4334 4.97477 13.4968 5.13285 13.4953 5.297Z" fill="url(#paint4_linear_0_1)"/>
<path d="M16.4329 5.297C16.4329 5.42011 16.3964 5.54045 16.328 5.64281C16.2596 5.74517 16.1624 5.82495 16.0486 5.87206C15.9349 5.91917 15.8097 5.9315 15.689 5.90748C15.5683 5.88346 15.4573 5.82418 15.3703 5.73713C15.2832 5.65008 15.224 5.53917 15.1999 5.41843C15.1759 5.29769 15.1883 5.17254 15.2354 5.0588C15.2825 4.94507 15.3623 4.84785 15.4646 4.77946C15.567 4.71107 15.6873 4.67456 15.8104 4.67456C15.8922 4.67456 15.9731 4.69066 16.0486 4.72194C16.1241 4.75322 16.1928 4.79907 16.2506 4.85687C16.3084 4.91467 16.3542 4.98328 16.3855 5.0588C16.4168 5.13432 16.4329 5.21526 16.4329 5.297Z" fill="url(#paint5_linear_0_1)"/>
<path d="M57.8277 39.3128C57.8277 41.89 57.0635 44.4092 55.6317 46.5521C54.1999 48.6949 52.1648 50.365 49.7839 51.3512C47.4029 52.3375 44.7829 52.5955 42.2553 52.0927C39.7277 51.59 37.4059 50.3489 35.5836 48.5266C33.7613 46.7043 32.5202 44.3825 32.0175 41.8549C31.5147 39.3273 31.7727 36.7073 32.759 34.3263C33.7452 31.9454 35.4153 29.9103 37.5581 28.4785C39.701 27.0467 42.2202 26.2825 44.7974 26.2825V26.2825C48.2391 26.2825 51.541 27.644 53.9824 30.07C56.4237 32.496 57.806 35.7893 57.8277 39.2309V39.3128Z" stroke="#263238" stroke-width="4.11736" stroke-miterlimit="10"/>
<path d="M95.3789 88.9824H101.349" stroke="#263238" stroke-width="1.02934" stroke-linecap="round" stroke-linejoin="round"/>
<path d="M1.32764 88.9824H92.2366" stroke="#263238" stroke-width="1.02934" stroke-linecap="round" stroke-linejoin="round"/>
<path d="M93.7408 85.4853C93.7408 85.4853 94.7974 84.6199 95.3024 85.5645C95.7365 86.3835 94.6963 87.2981 93.5088 87.2981V87.9887C93.5088 87.9887 96.0531 88.057 96.2388 85.9139C96.4244 83.7709 93.7299 84.3633 93.7299 84.3633L93.7408 85.4853Z" fill="url(#paint6_linear_0_1)" stroke="#263238" stroke-width="1.02934" stroke-linecap="round" stroke-linejoin="round"/>
<path d="M93.6535 88.9688H88.5593L87.7949 82.5724H94.4179L93.6535 88.9688Z" fill="url(#paint7_linear_0_1)" stroke="#263238" stroke-width="1.02934" stroke-linecap="round" stroke-linejoin="round"/>
<path d="M94.4071 82.2667H87.806C87.613 82.2667 87.4565 82.4231 87.4565 82.6161V82.6489C87.4565 82.8419 87.613 82.9983 87.806 82.9983H94.4071C94.6001 82.9983 94.7566 82.8419 94.7566 82.6489V82.6161C94.7566 82.4231 94.6001 82.2667 94.4071 82.2667Z" fill="white" stroke="#263238" stroke-width="1.02934" stroke-linecap="round" stroke-linejoin="round"/>
<path d="M90.241 81.5705C90.241 81.5705 92.5834 80.1645 91.819 78.5511C91.0546 76.9377 88.4692 75.8757 88.4692 73.3641C88.4692 71.202 90.7679 70.4021 92.2694 69.5421" stroke="#263238" stroke-width="1.02934" stroke-linecap="round" stroke-linejoin="round"/>
<path d="M91.011 71.0682C90.7053 71.2752 90.4435 71.5406 90.2406 71.8491C90.0376 72.1576 89.8977 72.5031 89.8287 72.8658C89.7597 73.2286 89.763 73.6014 89.8385 73.9628C89.914 74.3243 90.0601 74.6673 90.2685 74.9721" stroke="#263238" stroke-width="1.02934" stroke-linecap="round" stroke-linejoin="round"/>
<path d="M92.2856 77.4427C92.755 78.3437 92.8849 79.3833 92.6515 80.372" stroke="#263238" stroke-width="1.02934" stroke-linecap="round" stroke-linejoin="round"/>
<path d="M29.5369 88.4528C29.5369 88.4528 29.4304 86.6183 27.8115 85.9713C26.1926 85.3243 25.3272 85.5918 21.7154 86.5637C19.4377 87.1595 17.1051 87.5208 14.7539 87.642V88.461L29.5369 88.4528Z" fill="white" stroke="#263238" stroke-width="1.02934" stroke-linecap="round" stroke-linejoin="round"/>
<path d="M29.4849 88.4528C29.4849 88.4528 29.5913 86.6183 31.2102 85.9713C32.8291 85.3243 33.6918 85.5918 37.3063 86.5637C39.5875 87.1606 41.9238 87.522 44.2787 87.642V88.461L29.4849 88.4528Z" fill="white" stroke="#263238" stroke-width="1.02934" stroke-linecap="round" stroke-linejoin="round"/>
<path d="M44.8655 88.128H14.3823V88.7204H44.8655V88.128Z" fill="#263238" stroke="#263238" stroke-width="1.02934" stroke-linecap="round" stroke-linejoin="round"/>
<path d="M30.271 88.42C30.4161 87.9873 30.6509 87.59 30.9599 87.2542C31.269 86.9183 31.6454 86.6514 32.0646 86.4708" stroke="#263238" stroke-width="1.02934" stroke-linecap="round" stroke-linejoin="round"/>
<path d="M31.1938 88.289C31.4093 87.9177 31.7018 87.597 32.0517 87.3483C32.4016 87.0997 32.8008 86.9289 33.2222 86.8476C34.2296 86.6619 35.2561 87.0086 36.2061 87.3936C37.1562 87.7785 38.8187 88.289 39.8343 88.289" stroke="#263238" stroke-width="1.02934" stroke-linecap="round" stroke-linejoin="round"/>
<path d="M20.6367 88.1225C21.6461 88.0135 22.6355 87.7654 23.5769 87.3854C24.144 87.1192 24.7298 86.8947 25.3296 86.7138C25.9363 86.535 26.5889 86.6006 27.1478 86.8967C27.3882 87.053 27.5997 87.2497 27.7729 87.4782C28.0138 87.7825 28.213 88.1176 28.3654 88.4746" stroke="#263238" stroke-width="1.02934" stroke-linecap="round" stroke-linejoin="round"/>
<path d="M26.2114 87.298C26.5437 87.3412 26.8506 87.4985 27.0796 87.743C27.3011 87.9881 27.4944 88.2573 27.6556 88.5456" stroke="#263238" stroke-width="1.02934" stroke-linecap="round" stroke-linejoin="round"/>
<path d="M52.6326 88.158C51.5175 88.6691 50.3099 88.9478 49.0836 88.977C47.1944 88.977 43.3506 85.0731 43.3506 85.0731C43.3506 85.0731 43.2114 84.6527 43.5117 83.0802C43.812 81.5077 46.6348 67.0797 46.6348 67.0797C46.6348 67.0797 46.9678 63.7217 48.8761 61.6606C50.7844 59.5994 54.5299 58.8651 54.5299 58.8651C54.5299 58.8651 62.8128 55.2588 67.4592 56.3726C72.1002 58.2153 77.1698 60.0881 78.8624 61.5405C80.555 62.9928 84.7155 74.6445 86.157 80.6286C86.157 80.6286 82.982 87.3745 80.02 89.2691C77.0579 91.1637 69.919 90.5467 69.919 90.5467L52.6326 88.158Z" fill="url(#paint8_linear_0_1)"/>
<path opacity="0.3" d="M51.5815 76.4326L50.3831 60.5303C49.5986 60.8481 48.9032 61.3518 48.3567 61.9982C47.8103 62.6445 47.4292 63.414 47.2463 64.2404C46.6266 67.0851 42.8783 84.5925 43.3424 85.0785C43.8065 85.5644 46.2499 87.6583 46.2499 87.6583C46.2499 87.6583 48.8843 89.9106 51.5815 88.5647C54.2788 87.2188 51.5815 76.4326 51.5815 76.4326Z" fill="black"/>
<path opacity="0.3" d="M63.4732 62.0045C63.334 62.4795 62.7361 62.6324 62.2392 62.6379C60.8114 62.6534 59.4267 62.1488 58.3435 61.2183C58.147 61.0463 54.6335 63.2166 54.2294 63.4323C53.5906 63.7763 52.9654 64.153 52.3184 64.4724C51.7124 64.77 51.1391 64.9174 50.7432 65.518C50.4808 65.9608 50.2832 66.4389 50.1563 66.9376C49.3045 69.7277 48.4063 72.5096 47.631 75.3187C46.9594 77.7512 46.0558 80.4429 46.094 82.9955C46.0944 83.1781 46.1072 83.3606 46.1322 83.5415C46.6782 86.8038 52.6351 88.1579 52.6351 88.1579C52.6351 88.1579 50.5275 89.4492 49.0861 88.9769C47.6447 88.5046 44.2758 86.5773 43.2139 84.7755L46.1377 69.4875C46.1377 69.4875 46.1022 62.1165 51.4148 59.9325C56.7274 57.7485 58.8131 57.4127 58.8131 57.4127L63.4732 62.0045Z" fill="black"/>
<path opacity="0.3" d="M83.0775 86.0531C83.0775 86.0531 85.398 83.4896 86.1487 80.6341C86.1487 80.6341 82.5997 68.9114 81.677 66.7111C80.7543 64.5107 79.2609 62.0127 78.2154 60.9426L76.5173 85.0703L76.1597 90.1481C76.1597 90.1481 78.0707 90.2273 79.3947 89.6021C80.7188 88.9769 83.0775 86.0531 83.0775 86.0531Z" fill="black"/>
<path d="M76.1596 90.1563L78.2153 60.9453C78.2153 60.9453 68.2617 56.3043 65.6573 55.8621C63.0529 55.4198 50.4048 60.4048 50.4048 60.4048L52.2448 88.4201" stroke="#263238" stroke-width="1.02934" stroke-linecap="round" stroke-linejoin="round"/>
<path d="M58.2181 41.606L57.1971 46.5063C57.1971 46.5063 55.8867 45.5809 55.6083 46.6264C55.3298 47.672 56.1816 49.1107 57.8277 49.1899C57.8277 49.1899 58.2755 51.4094 59.7387 52.9164C60.4276 53.6515 61.1567 54.3478 61.9227 55.0021C61.9227 55.0021 62.4988 58.7231 64.3797 58.865C66.2607 59.007 66.6265 57.3144 67.006 54.9611C67.006 54.9611 68.6304 52.1438 69.1054 50.6204C69.1054 50.6204 71.0983 49.2309 69.7688 47.2025C69.7688 47.2025 70.4267 42.3513 69.2828 41.5323C68.139 40.7133 60.2138 41.131 58.2181 41.606Z" fill="white"/>
<path d="M64.2865 59.2527C64.2865 59.2527 63.6559 62.4304 63.2628 62.5096C62.8697 62.5888 61.3136 61.1037 59.954 59.2527C58.5945 57.4018 58.8047 57.3991 58.8047 57.3991C58.8047 57.3991 59.4353 54.9694 59.954 54.6145C60.4727 54.2596 62.3428 54.3032 62.3428 54.3032L66.4378 54.1476C66.4378 54.1476 67.8028 53.9538 68.6464 54.4971C69.4899 55.0403 69.8994 57.3991 69.8994 57.3991C69.8994 57.3991 67.4424 61.9281 65.4386 62.5096C64.9919 61.4472 64.6072 60.3597 64.2865 59.2527V59.2527Z" fill="white"/>
<path d="M50.8633 83.1129L51.4065 75.4907" stroke="#263238" stroke-width="1.02934" stroke-miterlimit="10"/>
<path d="M69.8994 43.0092C69.8994 43.0092 67.5734 43.9101 65.5178 43.7381C65.5178 43.7381 63.3474 45.9221 60.5683 44.6254C60.5683 44.6254 58.0621 51.4122 63.8088 55.8511C62.3552 55.2935 61.0549 54.3986 60.015 53.24C58.9751 52.0814 58.2253 50.6923 57.8273 49.1872C57.8273 49.1872 56.1893 49.4411 55.6079 47.0032C55.6079 47.0032 55.1356 46.0614 57.2895 46.0559L57.1967 41.333L62.7304 42.4441L66.7026 41.8626L69.8994 43.0092Z" fill="url(#paint9_linear_0_1)"/>
<path opacity="0.4" d="M69.8997 43.0092C69.8997 43.0092 67.5737 43.9101 65.518 43.7381C65.518 43.7381 63.3477 45.9221 60.5686 44.6254C60.5686 44.6254 58.5429 51.8926 63.5716 55.7283C63.5716 55.7283 59.0097 54.1476 57.8249 49.1763C57.8249 49.1763 56.2033 49.0043 55.6054 46.9923C55.6054 46.9923 55.1331 46.0504 57.2871 46.045L57.1943 41.3221L62.728 42.4332L66.7001 41.8517L69.8997 43.0092Z" fill="white"/>
<path d="M63.5742 52.4168C63.7545 52.5624 63.9432 52.6973 64.1393 52.8208C64.2676 52.9027 64.4615 52.9682 64.5516 52.8481C64.5824 52.7991 64.5985 52.7422 64.598 52.6843C64.6799 51.3439 64.3659 49.9898 64.557 48.6603" stroke="#263238" stroke-width="1.02934" stroke-linecap="round" stroke-linejoin="round"/>
<path d="M65.439 47.8986C65.439 47.8986 66.1051 46.4299 67.8222 47.7485" stroke="#263238" stroke-width="2.05868" stroke-linecap="round" stroke-linejoin="round"/>
<path d="M63.2792 48.158C63.2792 48.158 62.0234 46.5964 60.4673 48.2071" stroke="#263238" stroke-width="2.05868" stroke-linecap="round" stroke-linejoin="round"/>
<path d="M61.584 54.7673C61.584 54.7673 62.2528 58.7722 64.6116 58.8951C66.5226 58.9934 66.8993 55.6819 66.973 54.4971" stroke="#263238" stroke-width="1.02934" stroke-linecap="round" stroke-linejoin="round"/>
<path d="M57.5189 46.9513C57.5189 46.9513 56.4788 45.7092 55.7744 46.3153C55.0701 46.9213 56.1266 49.5913 57.8274 49.1872" stroke="#263238" stroke-width="1.02934" stroke-linecap="round" stroke-linejoin="round"/>
<path d="M62.0234 52.9136C62.5366 53.5325 63.2386 53.966 64.0218 54.1476" stroke="#263238" stroke-width="1.02934" stroke-linecap="round" stroke-linejoin="round"/>
<path d="M61.9089 50.5904C62.0582 50.5904 62.1792 50.3338 62.1792 50.0171C62.1792 49.7005 62.0582 49.4438 61.9089 49.4438C61.7597 49.4438 61.6387 49.7005 61.6387 50.0171C61.6387 50.3338 61.7597 50.5904 61.9089 50.5904Z" fill="#263238"/>
<path d="M66.5606 50.0171C66.5606 50.3338 66.4378 50.5904 66.2876 50.5904C66.1375 50.5904 66.0146 50.3338 66.0146 50.0171C66.0146 49.7005 66.1348 49.4411 66.2876 49.4411C66.4405 49.4411 66.5606 49.7005 66.5606 50.0171Z" fill="#263238"/>
<path d="M64.3631 58.8623C64.3631 58.8623 63.7079 62.4305 63.2711 62.5096C62.8343 62.5888 59.4736 59.5421 58.813 57.3991C58.813 57.3991 59.5228 54.5981 60.178 54.4971C60.4865 54.4479 60.8414 54.4015 61.1226 54.366" stroke="#263238" stroke-width="1.02934" stroke-linecap="round" stroke-linejoin="round"/>
<path d="M64.3633 58.8623C64.3633 58.8623 64.9966 62.4304 65.4389 62.5096C65.8812 62.5888 69.2391 59.5421 69.8997 57.3991C69.8997 57.3991 69.0971 54.6172 68.4883 54.3824C68.0998 54.2367 67.6998 54.1235 67.2926 54.0439" stroke="#263238" stroke-width="1.02934" stroke-linecap="round" stroke-linejoin="round"/>
<path d="M58.1498 50.0854C58.5812 50.8334 59.1162 48.1989 58.8896 47.3554C58.7368 46.8094 58.4392 46.2797 58.4119 45.7174C58.3846 45.0785 58.6849 44.4807 58.9197 43.8828C59.1545 43.2849 59.2773 42.5724 58.9197 42.0373C60.1594 42.9142 61.6149 43.4361 63.1293 43.547C63.5155 43.6014 63.9089 43.5697 64.2814 43.4542C64.466 43.3935 64.6318 43.2862 64.7628 43.1428C64.8938 42.9993 64.9856 42.8245 65.0294 42.6352C66.449 42.8154 67.855 43.001 69.2691 42.8072C70.4567 42.6461 72.3021 42.3458 72.9109 41.1337C73.8036 39.3647 71.505 37.5274 70.1482 36.9076C66.8722 35.4089 62.4441 35.155 59.4848 37.5083C59.1811 37.7715 58.8631 38.0176 58.532 38.2454C57.8795 38.6549 56.3944 38.9715 55.873 39.5421C55.1741 40.3092 56.0504 46.2333 56.0504 46.2333C56.0504 46.2333 57.1916 45.7037 57.6611 47.47C57.9887 48.6603 57.713 49.3319 58.1498 50.0854Z" fill="#263238"/>
<path d="M68.8839 42.425C68.8648 42.4984 68.852 42.5733 68.8457 42.6489C68.8152 43.3208 68.8954 43.9932 69.0832 44.639C69.1569 44.9284 69.2633 45.2096 69.3098 45.5045C69.419 46.2061 69.419 46.8831 69.9377 47.4537C69.9377 47.4537 70.9314 43.9784 70.5301 41.4941C70.4837 41.2211 70.3936 40.484 69.954 40.6178C69.6319 40.716 69.408 41.2675 69.2661 41.535C69.1077 41.8174 68.9796 42.1157 68.8839 42.425V42.425Z" fill="#263238"/>
<path d="M55.1685 39.149C55.6079 38.8439 56.1136 38.6476 56.6438 38.5764C57.174 38.5052 57.7135 38.5611 58.2179 38.7395C59.0111 37.3267 60.1155 36.1131 61.4475 35.1905" stroke="#263238" stroke-width="1.02934" stroke-linecap="round" stroke-linejoin="round"/>
<path opacity="0.47" d="M59.4385 38.3136C59.4385 38.3136 64.7893 42.1192 68.0298 41.1774C71.2703 40.2355 70.3639 37.4482 70.3639 37.4482" stroke="white" stroke-width="1.02934" stroke-linecap="round" stroke-linejoin="round"/>
<path opacity="0.47" d="M59.9541 37.6748C59.9541 37.6748 66.6726 40.7624 67.8029 36.3917" stroke="white" stroke-width="1.02934" stroke-linecap="round" stroke-linejoin="round"/>
<path d="M61.584 54.7673C61.584 54.7673 62.8616 57.2489 63.8635 57.208C64.8654 57.167 66.7027 54.4971 66.7027 54.4971C66.7027 54.4971 65.7117 55.7747 64.2075 55.9058C63.2165 55.9931 61.584 54.7673 61.584 54.7673Z" fill="#263238"/>
<path d="M69.3152 72.8864L69.5226 72.7908C69.6388 72.7394 69.7342 72.6502 69.7932 72.5376C69.8522 72.4251 69.8713 72.2959 69.8475 72.1711L69.8066 71.9199C69.7864 71.7948 69.7244 71.6802 69.6307 71.5949C69.537 71.5096 69.4171 71.4587 69.2906 71.4504L69.0394 71.4285C68.9403 71.4216 68.8447 71.3883 68.7627 71.3322C68.6806 71.276 68.615 71.199 68.5726 71.1091C68.5044 70.9672 68.4334 70.8361 68.3542 70.6942C68.3046 70.6088 68.2784 70.5118 68.2784 70.413C68.2784 70.3142 68.3046 70.2172 68.3542 70.1318L68.4825 69.9134C68.5454 69.8034 68.5706 69.6759 68.5544 69.5502C68.5381 69.4245 68.4812 69.3076 68.3924 69.2172L68.2122 69.0398C68.1246 68.9462 68.0068 68.8864 67.8796 68.8709C67.7523 68.8555 67.6236 68.8853 67.5161 68.9552L67.295 69.0862C67.2096 69.1358 67.1125 69.162 67.0138 69.162C66.915 69.162 66.818 69.1358 66.7326 69.0862C66.3743 68.8792 65.9895 68.7222 65.5887 68.6194C65.4907 68.5938 65.4015 68.5423 65.3304 68.4702C65.2593 68.3981 65.2089 68.3082 65.1847 68.2099L65.1192 67.9369C65.092 67.8098 65.0205 67.6966 64.9175 67.6176C64.8144 67.5385 64.6865 67.4988 64.5568 67.5055H64.3056C64.1763 67.4987 64.0487 67.538 63.9457 67.6165C63.8427 67.695 63.7709 67.8076 63.7432 67.9341L63.6723 68.2071C63.6495 68.3042 63.6005 68.3932 63.5307 68.4644C63.4609 68.5356 63.373 68.5864 63.2764 68.6112C63.1344 68.6521 63.0034 68.6931 62.8614 68.745C62.7673 68.7787 62.6659 68.7869 62.5676 68.7687C62.4693 68.7505 62.3776 68.7065 62.3018 68.6412L62.0752 68.4474C61.9825 68.3618 61.8631 68.311 61.7372 68.3035C61.6113 68.2961 61.4867 68.3324 61.3845 68.4064L61.1852 68.5429C61.0754 68.6123 60.9938 68.7186 60.9553 68.8427C60.9168 68.9668 60.9238 69.1006 60.975 69.22L61.076 69.493C61.1125 69.5861 61.1237 69.6872 61.1083 69.786C61.093 69.8848 61.0517 69.9777 60.9887 70.0553C60.898 70.1626 60.8132 70.2747 60.7348 70.3911C60.6777 70.4745 60.599 70.5409 60.5072 70.5832C60.4154 70.6255 60.3139 70.6422 60.2133 70.6314L59.9403 70.6068C59.8134 70.5898 59.6845 70.6179 59.5762 70.6863C59.4679 70.7546 59.3871 70.8589 59.3479 70.9808L59.2578 71.2265C59.2142 71.3434 59.2106 71.4714 59.2477 71.5905C59.2847 71.7096 59.3603 71.813 59.4626 71.8845L59.7356 72.0674C59.8163 72.1254 59.8804 72.2036 59.9216 72.2941C59.9628 72.3846 59.9796 72.4843 59.9704 72.5833C59.9535 72.7292 59.9462 72.876 59.9485 73.0229C59.946 73.1188 59.9198 73.2127 59.8721 73.2961C59.8245 73.3794 59.7569 73.4497 59.6755 73.5006L59.4025 73.648C59.2904 73.7089 59.2022 73.8061 59.1526 73.9237C59.103 74.0413 59.0949 74.1722 59.1295 74.295L59.1951 74.5407C59.2268 74.6645 59.2998 74.7736 59.4021 74.8501C59.5044 74.9266 59.6298 74.9658 59.7574 74.9612H60.0304C60.129 74.9601 60.2261 74.9847 60.3123 75.0326C60.3984 75.0805 60.4707 75.1499 60.5218 75.2342C60.5983 75.3707 60.6774 75.5072 60.7648 75.6245C60.821 75.7061 60.8546 75.8011 60.8623 75.8999C60.8699 75.9986 60.8514 76.0977 60.8085 76.1869L60.6938 76.4272C60.6372 76.5412 60.6209 76.6711 60.6477 76.7956C60.6745 76.92 60.7427 77.0317 60.8412 77.1124L61.0351 77.2762C61.1317 77.3586 61.2533 77.4059 61.3802 77.4103C61.5071 77.4148 61.6318 77.3762 61.734 77.3008L61.936 77.1588C62.0143 77.1028 62.1061 77.0685 62.202 77.0593C62.2979 77.0502 62.3945 77.0667 62.482 77.1069C62.6267 77.1752 62.7714 77.2353 62.9215 77.2926C63.0138 77.3267 63.0954 77.3845 63.1582 77.4603C63.221 77.536 63.2627 77.6269 63.2791 77.7239L63.3201 77.9696C63.3413 78.0948 63.4039 78.2091 63.498 78.2943C63.5921 78.3795 63.7122 78.4305 63.8388 78.4392L64.0954 78.461C64.2213 78.4731 64.3477 78.4422 64.4538 78.3733C64.5599 78.3044 64.6395 78.2015 64.6796 78.0815L64.7588 77.8632C64.7923 77.7684 64.8504 77.6844 64.9272 77.6196C65.0039 77.5548 65.0966 77.5117 65.1956 77.4946C65.3547 77.4691 65.5123 77.4353 65.6679 77.3936C65.7638 77.368 65.8648 77.3682 65.9607 77.3941C66.0565 77.42 66.1438 77.4706 66.2139 77.541L66.3804 77.7103C66.4682 77.8005 66.5836 77.8587 66.7084 77.8755C66.8331 77.8923 66.9599 77.8668 67.0684 77.8031L67.2922 77.6775C67.405 77.6165 67.4935 77.5189 67.5431 77.4007C67.5928 77.2825 67.6006 77.151 67.5652 77.0278L67.5024 76.8094C67.4731 76.7116 67.4708 76.6076 67.4958 76.5086C67.5208 76.4096 67.5721 76.3192 67.6444 76.247C67.7618 76.1319 67.873 76.0107 67.9775 75.8839C68.0426 75.8056 68.1278 75.7464 68.224 75.7128C68.3202 75.6791 68.4237 75.6722 68.5235 75.6928L68.7501 75.7365C68.8745 75.7605 69.0035 75.7418 69.116 75.6833C69.2285 75.6248 69.3179 75.53 69.3698 75.4143L69.4762 75.185C69.5322 75.0699 69.547 74.9391 69.5181 74.8144C69.4893 74.6897 69.4187 74.5787 69.3179 74.4998L69.1486 74.3606C69.0701 74.3006 69.0093 74.2204 68.9728 74.1285C68.9362 74.0367 68.9253 73.9367 68.9412 73.8391C68.9679 73.6719 68.9852 73.5033 68.993 73.3341C69.0037 73.2381 69.039 73.1464 69.0954 73.068C69.1519 72.9896 69.2275 72.927 69.3152 72.8864V72.8864ZM65.9327 73.031C65.9332 73.3249 65.8466 73.6123 65.6837 73.8569C65.5209 74.1015 65.2891 74.2922 65.0178 74.4051C64.7465 74.5179 64.4478 74.5477 64.1595 74.4907C63.8713 74.4337 63.6064 74.2925 63.3984 74.0849C63.1904 73.8773 63.0487 73.6127 62.9912 73.3245C62.9337 73.0364 62.9629 72.7376 63.0752 72.4661C63.1876 72.1946 63.3779 71.9624 63.6222 71.7991C63.8665 71.6358 64.1537 71.5487 64.4476 71.5487V71.5487C64.8395 71.5479 65.2158 71.7028 65.4937 71.9791C65.7716 72.2555 65.9285 72.6309 65.93 73.0229L65.9327 73.031Z" fill="#263238"/>
<path d="M50.9204 82.0864C50.6976 82.332 50.4537 82.5576 50.1915 82.7607C49.4808 83.4492 48.9478 84.2998 48.6382 85.2396C48.4852 85.6742 48.4852 86.1481 48.6382 86.5827C48.9685 87.4017 50.0168 88.2207 50.8549 87.6966" stroke="#263238" stroke-width="1.02934" stroke-linecap="round" stroke-linejoin="round"/>
<path d="M50.8552 80.645C50.0553 80.5194 49.2691 80.9835 48.7231 81.5759C48.1771 82.1683 47.7976 82.9 47.3008 83.5361" stroke="#263238" stroke-width="1.02934" stroke-linecap="round" stroke-linejoin="round"/>
<path d="M50.7924 88.8541C49.7276 89.0611 48.6252 88.9431 47.6283 88.5156C46.9967 88.1759 46.4083 87.7616 45.8756 87.2816L43.8008 85.5672C43.4678 85.2942 43.0992 84.8983 43.2357 84.4888C43.2357 84.4888 46.7028 66.2169 47.2461 64.2404C47.8767 61.9608 50.4156 60.4184 50.4156 60.4184" stroke="#263238" stroke-width="1.02934" stroke-linecap="round" stroke-linejoin="round"/>
<path d="M76.8066 82.283C77.6994 82.9542 78.3823 83.8662 78.775 84.912C79.0856 85.8821 79.2933 86.8822 79.3947 87.8958C78.8487 88.1961 77.7567 88.9878 76.8066 88.9878" stroke="#263238" stroke-width="1.02934" stroke-linecap="round" stroke-linejoin="round"/>
<path d="M76.9238 80.7624C77.7647 80.5385 78.5973 81.1118 79.2334 81.707C79.8695 82.3021 80.522 82.9928 81.3874 83.0856" stroke="#263238" stroke-width="1.02934" stroke-linecap="round" stroke-linejoin="round"/>
<path d="M77.085 90.2573C78.723 90.0853 80.1972 89.1926 81.3765 88.0542C82.5559 86.9158 83.4622 85.5344 84.3604 84.1667C85.0893 83.0583 85.8291 81.9199 86.1486 80.6341C86.1486 80.6341 83.2739 71.1309 81.6768 66.7111C80.0115 62.1165 78.2152 60.9426 78.2152 60.9426" stroke="#263238" stroke-width="1.02934" stroke-linecap="round" stroke-linejoin="round"/>
<path d="M76.9238 80.7623C78.4062 79.5175 80.6803 80.5248 82.2746 81.3602" stroke="#263238" stroke-width="1.02934" stroke-linecap="round" stroke-linejoin="round"/>
<path d="M76.804 75.6764H50.9209V90.5522H76.804V75.6764Z" fill="white"/>
<path d="M76.924 90.5522H50.7925V91.3302H76.924V90.5522Z" fill="#263238"/>
<path d="M50.7925 90.5522L76.8067 75.6764L76.924 90.5522H50.7925Z" fill="#263238"/>
<path opacity="0.9" d="M50.7925 90.5522L76.8067 75.6764L76.924 90.5522H50.7925Z" fill="white"/>
<path d="M65.7711 84.4307C66.6325 83.5693 66.6325 82.1726 65.7711 81.3112C64.9097 80.4498 63.513 80.4498 62.6516 81.3112C61.7901 82.1726 61.7901 83.5693 62.6516 84.4307C63.513 85.2922 64.9097 85.2922 65.7711 84.4307Z" fill="#263238"/>
<path d="M76.804 75.6764H50.9209V90.5522H76.804V75.6764Z" stroke="#263238" stroke-width="1.02934" stroke-linecap="round" stroke-linejoin="round"/>
<path d="M57.3989 45.4444C57.3989 45.4444 57.9668 50.6314 58.6875 51.5678C59.4082 52.5042 61.7233 55.8921 64.2458 55.8402C66.7683 55.7884 68.4145 52.5451 68.8267 51.1556C69.3398 49.3958 69.6503 47.5831 69.7522 45.7529" stroke="#263238" stroke-width="1.02934" stroke-linecap="round" stroke-linejoin="round"/>
<path d="M69.0889 50.615C69.0889 50.615 70.9589 49.6486 69.7523 47.197" stroke="#263238" stroke-width="1.02934" stroke-linecap="round" stroke-linejoin="round"/>
<defs>
<linearGradient id="paint0_linear_0_1" x1="55.6151" y1="0.558655" x2="55.6151" y2="101.03" gradientUnits="userSpaceOnUse">
<stop stop-color="#44CACB"/>
<stop offset="1" stop-color="#16629C"/>
</linearGradient>
<linearGradient id="paint1_linear_0_1" x1="44.8058" y1="15.0377" x2="44.8058" y2="63.2795" gradientUnits="userSpaceOnUse">
<stop stop-color="#44CACB"/>
<stop offset="1" stop-color="#16629C"/>
</linearGradient>
<linearGradient id="paint2_linear_0_1" x1="77.0927" y1="20.7977" x2="77.0927" y2="31.7584" gradientUnits="userSpaceOnUse">
<stop stop-color="#44CACB"/>
<stop offset="1" stop-color="#16629C"/>
</linearGradient>
<linearGradient id="paint3_linear_0_1" x1="9.92713" y1="4.67456" x2="9.92713" y2="5.91944" gradientUnits="userSpaceOnUse">
<stop stop-color="#44CACB"/>
<stop offset="1" stop-color="#16629C"/>
</linearGradient>
<linearGradient id="paint4_linear_0_1" x1="12.8729" y1="4.66901" x2="12.8729" y2="5.91389" gradientUnits="userSpaceOnUse">
<stop stop-color="#44CACB"/>
<stop offset="1" stop-color="#16629C"/>
</linearGradient>
<linearGradient id="paint5_linear_0_1" x1="15.8104" y1="4.67456" x2="15.8104" y2="5.91944" gradientUnits="userSpaceOnUse">
<stop stop-color="#44CACB"/>
<stop offset="1" stop-color="#16629C"/>
</linearGradient>
<linearGradient id="paint6_linear_0_1" x1="94.8784" y1="84.2882" x2="94.8784" y2="87.989" gradientUnits="userSpaceOnUse">
<stop stop-color="#44CACB"/>
<stop offset="1" stop-color="#16629C"/>
</linearGradient>
<linearGradient id="paint7_linear_0_1" x1="91.1064" y1="82.5724" x2="91.1064" y2="88.9688" gradientUnits="userSpaceOnUse">
<stop stop-color="#44CACB"/>
<stop offset="1" stop-color="#16629C"/>
</linearGradient>
<linearGradient id="paint8_linear_0_1" x1="64.7377" y1="56.1591" x2="64.7377" y2="90.6427" gradientUnits="userSpaceOnUse">
<stop stop-color="#44CACB"/>
<stop offset="1" stop-color="#16629C"/>
</linearGradient>
<linearGradient id="paint9_linear_0_1" x1="62.7317" y1="41.333" x2="62.7317" y2="55.8511" gradientUnits="userSpaceOnUse">
<stop stop-color="#44CACB"/>
<stop offset="1" stop-color="#16629C"/>
</linearGradient>
</defs>
</svg>
